<?xml version="1.0" encoding="utf-8"?>
<!-- Generator: Adobe Illustrator 22.1.0, SVG Export Plug-In . SVG Version: 6.00 Build 0)  -->
<svg version="1.1" xmlns="http://www.w3.org/2000/svg" xmlns:xlink="http://www.w3.org/1999/xlink" x="0px" y="0px"
	 viewBox="0 0 720 1280" style="enable-background:new 0 0 720 1280;" xml:space="preserve">
<style type="text/css">
	.st0{fill:#211C1D;}
</style>
<g id="Слой_1">
	<g>
		<path class="st0" d="M608.9,662.7c6.7-1.5,13.4-3,20.1-4.5c8.6-2,10.8-4.8,9.8-13.8c-1.3-11.6-2.9-23.2-4.6-34.7
			c-2-13.8-2-27.8-3.1-41.6c-0.5-5.9-3.4-8.4-8.8-8.8c-6.9-0.6-13.8-1-20.6-1.9c-7.5-1-8.8-3-8-10.7c3.3-29.9,2.6-59.3-8.4-87.8
			c-8.6-22.2-21.2-41.1-43.3-51.7c-8.8-4.2-18-6.2-27.8-5.4c-3.9,0.3-7.6,1.3-10.8,3.7c-2.5,1.9-4.9,3.8-8.1,1.1
			c-3.2-2.7-2.5-5.6-1.3-8.9c5.9-15.7,6-31.5,1.5-47.7c-8.7-31.7-32-52-64.5-54.8c-12.2-1-23.8,2.8-34.4,8.9
			c-8.1,4.7-16,9.8-24.4,13.8c-4.5,2.1-7,5.2-6.7,10.6c0.3,4.8-2.2,9.1-3.6,13.6c-3.6,11.5-5.6,23-3.4,35.1
			c1.6,8.6,6.2,13.8,14.6,16.2c8.9,2.6,9.5,3.9,8.6,13.1c-0.2,1.8-0.5,3.7-0.7,5.5c-1.1,10.1-3.3,12-13.4,9.8
			c-9.1-1.9-18.1-4.6-27.2-7c-3.6-0.9-4.4-3.8-5.2-6.9c-1.3-5-1.5-10.4-4.8-15.5c-2.6,3.3-2.7,6.9-3.1,10.2c-0.5,3.7-2.1,6.1-5.8,7
			c-2.9,0.7-5.2,2-6.8,4.8c-2,3.5-5.5,3-8.7,3c-17.3,0-34.5,0-51.8,0c-42.3,0-84.5,0-126.8,0c-4.6,0-9.2-0.4-9.5,6.2
			c-0.1,1.7-1.7,2.8-3.6,2.4c-2.2-0.5-2.7-2.4-2.7-4.3c-0.1-7.2,0-14.3-0.3-21.5c-0.1-3.1,1.6-8.5-3.2-8.5c-4.1,0-2.7,5.2-2.8,8.2
			c-0.3,4.9,0.3,9.9-0.3,14.7c-0.6,4.9-1.3,10-8.9,8.3c-4.1-0.9-4.3,3.5-3.9,6c0.9,6.5-2.1,8.2-7.8,8.6c-14.4,0.8-29.1,2.6-43.1-0.9
			c-12.3-3-24.1,0.5-36-0.8c-3.8-0.4-5.5,1.8-5.1,5.8c0.4,3.6,0.5,7.1,5.6,7.1c4.3,0,8.5,0,12.8,0.5c8.5,0.9,16.4-2.2,24.5-2.9
			c15.7-1.4,31.7-2.2,47.4,1.2c6.8,1.4,13.6,2.6,20.5,0.6c2.8-0.8,4.9,0.1,5.5,3.1c1.1,5.7,5.1,6.7,10,6.7c20.9-0.1,41.9,0,62.8,0
			c9.6,0,17.2,2.9,22.3,12c3.2,5.7,8.3,10.1,13.6,13.9c4.5,3.2,6.1,7.2,5.9,12.6c-0.4,10.6-3.6,20.5-5.8,30.7
			c-2.1,9.6-2,10,7.4,13.1c4.7,1.5,7,4.6,7.8,9.2c1.5,7.8,2.9,15.7,4.5,23.5c2,9.8,6.9,17.8,15.5,23.3c3.9,2.5,7.5,5.7,10.8,9
			c6.1,6.3,14.4,8.1,21.8,11.8c0.5,0.2,1.2,0.4,1.7,0.1c16.6-8.1,35.5-9.9,51.4-19.8c7.9-5,16.5-8.9,24.7-13.4
			c8.2-4.6,8.8-4.4,11,5.1c0.3,1.2,0.4,2.5,0.8,3.6c2.3,5.8,0.8,9.2-5.2,11.9c-9.6,4.3-12.9,13-13.4,23.1c-0.8,15.4,1.4,30.7,2.8,46
			c0.4,5.1,0.9,10.2,0.8,15.3c-0.1,11.8,3.2,22.6,9.1,32.7c4.5,7.7,8.1,9,16.8,6.7c10.9-3,15.1,1.1,13.8,12.7
			c-1.5,13-6.2,23.9-15.2,33.9c-22.2,24.5-37.2,53.6-49.2,84.3c-5,12.8-9.9,25.6-14.8,38.4c-1.6,4.3-3.5,8.3-7.8,10.6
			c-1.6,0.9-2.8,2.3-3.4,4.2c-5.1,17.9-8.3,35.9-6.4,54.8c2.2,21.2,4.3,42.4,7.8,63.4c1.2,7.4,0,14.7-1.5,22
			c-2.5,12.5-1.8,24.4,4.5,35.7c1.1,1.9,1.9,4.2,2,6.4c0.4,14.9,1.3,29.9-0.6,44.8c-1,7.8-5.8,13.4-10.5,19.1
			c-4.9,6-10.1,11.8-15.1,17.7c-4.4,5.1-9.9,8.4-16.2,10.4c-7.7,2.5-15.3,5.4-22.3,9.9c-5.9,3.8-8.5,14.7-5.1,20.9
			c1,1.8,2.5,2.7,4.3,3c3.4,0.5,6.8,1.1,10.3,1.1c10.6,0.2,21.1-0.2,31.7,0.2c14,0.5,27.5-0.9,40.8-5.7c8.3-3.1,17-3.4,25.8-2.2
			c7.4,0.9,15,1.6,22.2-1.5c5-2.1,7.2-5.2,5.9-11c-3.3-15.4-5.3-31-11-45.9c-3.3-8.6-1.2-18.3-1-27.5c0.1-5.7,0.6-11.4,1.1-17.2
			c0.5-6.2-0.3-12.8,5.3-17.6c0.8-0.7,1.1-2.2,1.3-3.4c5.8-26.2,9.2-52.7,11.4-79.5c0.7-8.2-0.1-16-5.8-22.5
			c-1.8-2.1-2.4-4.6-2.7-7.4c-0.6-6.1-1.2-12.2-2-18.3c-1.1-7.8,3.1-13.3,7.7-18.6c1.9-2.1,4.5-1.5,6.9-1.1
			c12.3,2,21.1-2.7,27.9-13.1c12.4-19,25.2-37.7,37.7-56.6c2.5-3.8,5.3-6.7,10.2-6.4c9.3,0.6,15.4-4.1,19-12.5
			c0.5-1.1,1-2.3,1.7-3.3c1.7-2.4,1.7-7,5.3-6.6c3.2,0.3,3.6,4.6,4.7,7.3c2.2,5.6,5.2,10.5,9.3,14.9c7.6,8,12,18,15.6,28.3
			c5.5,15.6,12.5,30.7,13.5,47.6c0.5,7.6,4.1,14.1,11,18.2c4,2.4,6.5,6,8.3,10.3c2.9,7.1,7.5,12.7,13.1,18.2
			c9.1,9,15,20.1,12.5,33.6c-1.9,9.9,1.1,18.7,4.7,27.4c8.2,19.6,18.2,38.5,24.1,59c1.8,6.4,6.2,11.1,12.1,13.9
			c3.4,1.6,5.5,4.1,7,7.4c12.4,26.6,18.4,53.8,8.2,82.6c-0.5,1.5-0.8,3.2-1.2,4.8c-2.9,14.9-0.1,18,14.9,19
			c13.4,0.9,26.7,1.7,40.1-0.4c11.1-1.7,13.5-4.5,14.5-15.9c1.4-15.7-2.9-30.4-6.7-45.3c-4.3-16.9-8.4-33.8-12.7-50.7
			c-1.1-4.5-0.5-8.6,1.2-13.1c4.4-11.8,4.2-24.3-1.8-35.2c-8.7-15.7-14.1-31.9-17.4-49.7c-3.4-18.5-14.5-34.4-25.6-49.8
			c-7.2-9.9-12-21.3-16.6-32.6c-1.1-2.7-1.2-6.2-0.6-9.1c3.7-16.5-0.1-32.6-2.3-48.8c-2-14.2-4.4-28.3-6.7-42.5
			c-0.7-4,0.1-7.5,1.7-11.2c4-9.5,6.3-19.4,2.6-29.7c-0.8-2.3-0.8-4.3,0.6-6.4c5.3-8.2,1.3-15.7-1.9-23.1c-0.7-1.7-2.5-2.9-4.3-3.2
			c-6.2-0.9-7.1-5.2-6.7-10.4c1.1-15.3,3.3-30.5,5.4-45.8c1.5-10.8,2.3-21.6,1.8-32.5c-0.1-2,1-5.8-3.6-4.1
			c-1.2,0.5-2.1-0.4-2.1-1.5c-0.3-7.3-6.1-8.4-11.2-10.4C611.3,664.9,609.6,665,608.9,662.7z"/>
	</g>
</g>
<g id="Слой_2">
</g>
</svg>
