<?xml version="1.0" encoding="utf-8"?>
<!-- Generator: Adobe Illustrator 22.1.0, SVG Export Plug-In . SVG Version: 6.00 Build 0)  -->
<svg version="1.1" id="Слой_1" xmlns="http://www.w3.org/2000/svg" xmlns:xlink="http://www.w3.org/1999/xlink" x="0px" y="0px"
	 viewBox="0 0 128 128" style="enable-background:new 0 0 128 128;" xml:space="preserve">
<style type="text/css">
	.st0{fill:#BFBFBF;}
</style>
<path class="st0" d="M100.8,72.1l-4.2-4l0,0L75.5,48.2c0,0-0.1-0.1-0.1-0.1l0,0l0,0c-0.5-0.5-1.2-0.8-1.9-0.8
	c-1.6,0-2.9,1.3-2.9,2.9c0,0.7,0.3,1.3,0.7,1.8l0,0l0.2,0.2c0,0,0.1,0.1,0.1,0.1l16.8,15.9H45.2v0c-0.1,0-0.2,0-0.3,0
	c-2.1,0-3.8,1.7-3.8,3.9s1.7,3.9,3.8,3.9c0.1,0,0.2,0,0.3,0v0h43.1L71.5,91.8c-0.1,0.1-0.2,0.1-0.2,0.2l-0.1,0.1l0,0
	c-0.4,0.5-0.7,1.1-0.7,1.9c0,1.6,1.3,2.9,2.9,2.9c0.8,0,1.5-0.3,2-0.8l0,0l21.2-20l0,0L100.8,72.1L100.8,72.1L100.8,72.1z"/>
<path class="st0" d="M19.6,0C14.2,0,9.5,3.7,8.1,8.7c-0.3,1-0.5,2.1-0.5,3.2V12v1v0.1v98.7v1.1v2v1.1c0,6.6,5.4,12,12,12h83.9v-1.4
	v-2.1v-0.3v-1V123v-2v-1.3H26.1c-6.6,0-12-5.1-12-11.4V16.8c0-3.1,1.3-6,3.3-8.1c2.2-2.2,5.3-3.5,8.7-3.5h77.4V5V3.9V3.8V1.6V1.4
	V0.3V0H19.6z"/>
</svg>
