<?xml version="1.0" encoding="utf-8"?>
<!-- Generator: Adobe Illustrator 22.1.0, SVG Export Plug-In . SVG Version: 6.00 Build 0)  -->
<svg version="1.1" id="Слой_1" xmlns="http://www.w3.org/2000/svg" xmlns:xlink="http://www.w3.org/1999/xlink" x="0px" y="0px"
	 viewBox="0 0 128 128" style="enable-background:new 0 0 128 128;" xml:space="preserve">
<style type="text/css">
	.st0{fill:#BFBFBF;}
</style>
<g>
	<path class="st0" d="M64,0C28.7,0,0,28.7,0,64c0,35.3,28.7,64,64,64s64-28.7,64-64C128,28.7,99.3,0,64,0z M64,121
		C32.5,121,7,95.5,7,64S32.5,7,64,7s57,25.5,57,57S95.5,121,64,121z"/>
	<polygon class="st0" points="101.6,47.4 64,85 26.4,47.4 21.5,52.3 59.1,89.9 64,94.8 68.9,89.9 106.5,52.3 	"/>
</g>
</svg>
