<?xml version="1.0" encoding="utf-8"?>
<!-- Generator: Adobe Illustrator 22.1.0, SVG Export Plug-In . SVG Version: 6.00 Build 0)  -->
<svg version="1.1" id="Слой_1" xmlns="http://www.w3.org/2000/svg" xmlns:xlink="http://www.w3.org/1999/xlink" x="0px" y="0px"
	 viewBox="0 0 128 128" style="enable-background:new 0 0 128 128;" xml:space="preserve">
<style type="text/css">
	.st0{fill:#7F7E7C;}
</style>
<path class="st0" d="M117.8,68.5l-0.1,0.2c0.1-1.6,0.2-3.2,0.2-4.8c0-1.7-0.1-3.4-0.3-5.1l9.6-10.3c0.7-0.8,0.9-1.9,0.5-2.9
	l-5.5-12.9c-0.4-1-1.4-1.7-2.5-1.8l-14.1-1.2c-2.2-2.6-4.6-5.1-7.2-7.2L98,8.3c0-1.1-0.7-2-1.7-2.4l-13-5.4c-1-0.4-2.2-0.2-3,0.5
	l-11.4,9.4c-1.6-0.2-3.3-0.2-5-0.2c-1.7,0-3.5,0.1-5.2,0.2L48.4,0.7c-0.8-0.7-1.9-0.9-2.9-0.5l-13,5.4c-1,0.4-1.7,1.4-1.8,2.5
	l-1.3,14.3c-2.7,2.2-5.2,4.7-7.4,7.4L7.8,30.5c-1.1,0-2,0.7-2.4,1.7l-5.2,13c-0.4,1-0.2,2.2,0.5,3l9.2,10.8
	c-0.1,1.6-0.2,3.3-0.2,4.9c0,2.1,0.1,4.1,0.4,6.1L0.7,80c-0.7,0.8-0.9,1.9-0.5,2.9l5.5,12.9c0.4,1,1.4,1.7,2.5,1.8l14.5,1.3
	c2.2,2.5,4.5,4.8,7.1,6.9l0.4,13.8c0,1.1,0.7,2,1.7,2.4l13.1,5.3c1,0.4,2.2,0.2,3-0.5l11.2-9.3c1.5,0.1,3,0.2,4.6,0.2
	c1.8,0,3.6-0.1,5.4-0.3l10.3,9.6c0.8,0.7,1.9,0.9,2.9,0.5l13-5.4c1-0.4,1.7-1.4,1.8-2.5l1.3-14.6c2.6-2.2,5-4.6,7.2-7.2l14.3-0.4
	c1.1,0,2-0.7,2.4-1.7l5.3-13c0.4-1,0.2-2.2-0.5-3L117.8,68.5z M31.8,61.8c0-17.6,14.4-31.9,32.1-31.9S96,44.2,96,61.8
	c0,17.6-14.4,31.9-32.1,31.9S31.8,79.5,31.8,61.8z"/>
</svg>
