<?xml version="1.0" encoding="utf-8"?>
<!-- Generator: Adobe Illustrator 22.1.0, SVG Export Plug-In . SVG Version: 6.00 Build 0)  -->
<svg version="1.1" xmlns="http://www.w3.org/2000/svg" xmlns:xlink="http://www.w3.org/1999/xlink" x="0px" y="0px"
	 viewBox="0 0 512 512" style="enable-background:new 0 0 512 512;" xml:space="preserve">
<style type="text/css">
	.st0{fill:#92CACB;}
	.st1{fill:#B7DBDF;}
	.st2{fill:#76B0B1;}
	.st3{fill:#70A3A3;}
	.st4{fill:#67ABA9;}
	.st5{fill:url(#SVGID_1_);}
	.st6{fill:url(#SVGID_2_);}
	.st7{fill:#9DCDCD;}
	.st8{fill:#B4D2D1;}
	.st9{fill:#9ACFD8;}
	.st10{fill:#6BA5AC;}
	.st11{fill:#529F9A;}
	.st12{fill:#70A09C;}
	.st13{fill:#7CB4B4;}
	.st14{fill:#8BBFB9;}
	.st15{fill:#609B9B;}
	.st16{fill:#A7CECC;}
	.st17{fill:#E0DFE0;}
	.st18{fill:#D6D4D6;}
	.st19{fill:#D4D3D3;}
	.st20{fill:#CCCCCC;}
	.st21{fill:#EFEFEF;}
	.st22{fill:#B5B5B5;}
	.st23{fill:#202020;}
	.st24{fill:#161718;}
	.st25{fill:#E8E8E8;}
	.st26{fill:#DADBDB;}
	.st27{fill:#EAEAEA;}
	.st28{fill:#DFE1E2;}
</style>
<g id="ice">
	<polygon class="st0" points="0,352.7 151.5,352.4 267.3,348.6 332.1,360 424.7,378.9 511,352.7 511,389.3 483.8,409.8 463.5,425.2 
		439.2,428.8 430.9,426.2 402.2,434.2 396.6,435 353.2,441.4 317.2,446.7 280.3,452.2 273.2,442.1 250,446.3 177.8,444.9 
		171.2,447.4 168.8,445.6 164.3,449.3 158.3,452.2 81.6,445.2 70.4,440.2 67,434.6 37.4,425.3 19.4,417.2 2.1,400.4 	"/>
	<polygon class="st1" points="0,352.7 104.4,327.2 111,327.8 114.7,325.1 151.5,315.8 267.3,312 283.2,314.8 284.2,317.6 
		285.9,315.6 339.7,314.1 446.8,316.2 470.8,336.4 511,352.7 463.5,388.6 280.3,415.5 273.2,405.4 250,409.6 216.2,411.8 
		158.3,415.5 19.4,380.6 2.1,363.8 	"/>
	<polygon class="st2" points="273.2,442.1 280.3,452.2 280.3,415.5 273.2,405.4 	"/>
	<polygon class="st3" points="167.5,439.5 164.3,449.3 168.8,445.6 	"/>
	<polygon class="st4" points="171.2,447.4 168.8,445.6 167.5,439.5 	"/>
	<linearGradient id="SVGID_1_" gradientUnits="userSpaceOnUse" x1="0" y1="368.6633" x2="165.8978" y2="368.6633">
		<stop  offset="0" style="stop-color:#6086C4;stop-opacity:0.2"/>
		<stop  offset="1" style="stop-color:#6086C4;stop-opacity:0"/>
	</linearGradient>
	<polygon class="st5" points="165.9,375.6 91.3,330.4 0,352.7 2.1,363.8 19.4,380.6 124,406.9 	"/>
	<linearGradient id="SVGID_2_" gradientUnits="userSpaceOnUse" x1="253.883" y1="387.9601" x2="512" y2="387.9601">
		<stop  offset="0" style="stop-color:#88C8E2;stop-opacity:0"/>
		<stop  offset="0.4619" style="stop-color:#73A7D4;stop-opacity:0.2"/>
		<stop  offset="1" style="stop-color:#6086C4;stop-opacity:0"/>
	</linearGradient>
	<polygon class="st6" points="471.8,336.4 425.7,342.3 405.3,338.1 253.9,409.1 274.2,405.4 281.3,415.5 302.2,412.5 308.2,439.5 
		326.5,408.9 346.9,405.9 366.2,403.1 382.9,400.6 432.1,393.3 464.4,388.6 476.5,379.5 512,352.7 	"/>
	<polygon class="st7" points="2.1,400.4 19.4,417.2 19.4,380.6 2.1,363.8 	"/>
	<polyline class="st8" points="2.1,363.8 0,352.7 2.1,400.4 	"/>
	<polygon class="st9" points="187.3,413.7 217.5,411.7 214.2,424.8 204.4,414.2 	"/>
	<polygon class="st10" points="204.4,414.2 187.2,413.7 200.7,416.5 214.2,424.8 	"/>
	<polygon class="st11" points="67,434.6 65.7,427.8 70.4,440.2 	"/>
	<polygon class="st12" points="67,434.6 37,425.1 65.7,427.8 	"/>
	<polygon class="st13" points="358.6,404 401.2,397.7 383.8,419.2 386.1,401.5 	"/>
	<polygon class="st14" points="383.8,419.2 386.1,401.5 358.6,404 377.1,404.5 	"/>
	<polygon class="st15" points="402.2,434.2 430.9,426.2 437,421.1 	"/>
	<polygon class="st16" points="439.2,428.8 437,421.1 430.9,426.2 	"/>
</g>
<g id="bear">
	<g id="foot">
		<path class="st17" d="M199.9,337.1c-0.6,2.4-1,4.9-1,7.5c0,0,0.2,3.6-2.9,4.6c-3.2,1.1-58.5,7.2-72,0c-5.3-2.8-2.3-5.9,1.9-7.7
			c2.9-1.2,5.9-2.3,9-2.9c2-0.4,4-0.2,6-0.7c1.8-0.5,3.1-1.3,4.2-2.9c0.8-1.2,1.4-2.6,2.1-3.8c0.8-1.3,1.4-2.7,2.1-4.1
			c1.4-2.8,2.8-5.7,4.2-8.6c2.7-5.8,5.2-11.6,7.5-17.5c0.5-1.3,1.1-2.7,1.6-4.1c6.4-16.5,11.7-33.6,14-51.2
			c1.7-13.4,1.9-27.8-3.6-40.4c0,0,57.7,53,57.7,53c-3.1,9-6.4,18-9.7,27c-3.2,8.6-6.4,17.2-9.8,25.7c-2.1,5.2-4.2,10.5-6.9,15.3
			C202.4,330,200.8,333.5,199.9,337.1z"/>
		<path class="st18" d="M141.2,337.8c-0.1,0-0.2,0.1-0.4,0.1c-1.9,0.5-4,0.3-6,0.7c-3.1,0.6-6.1,1.7-9,2.9c-4.2,1.8-7.2,4.9-1.9,7.7
			c13.3,7.1,67.6,1.2,71.8,0C169.9,346.4,152.2,341.6,141.2,337.8z"/>
	</g>
	<g id="foot1">
		<path class="st19" d="M280.3,343.1c-1.2,0.3-2.4,0.9-3.6,1.7c-1.1,0.8-2.5,1.7-3.1,3c-2.2,4.5,6.1,6,8.8,6.5
			c14.4,2.9,29.7,2.3,44.3,2.1l18.7,0.1c0,0,5.4,0.3,4.7-5.6s9.6-39.5,36.1-70.2c0,0-78.9-29.9-78.9-29.9c1.7,7.6,2.7,15.4,3.5,23.1
			c1.4,15.1,1.5,30.9-2.2,45.7c-1.2,4.7-2.6,7.5-4.8,11.8c-1.1,2.2-2.1,4-3.5,6.1c-1.8,2.7-4.4,4-7.3,4c-2.2,0-4.4,0.2-6.6,0.4
			C284,342.1,282.2,342.5,280.3,343.1z"/>
		<path class="st20" d="M293.4,341.5c0,0,1.3,0,2.2-0.4c0,0,5.6,4.1,10.7,15.4C306.4,356.6,297.3,342.4,293.4,341.5z"/>
	</g>
	<g>
		<path class="st21" d="M37.3,123.8c-1.9,14.4,4.4,22.2,16.1,29.7c6.6,4.2,13,6.6,19.5,11c9.6,6.6,17.1,10.5,27.1,18.4
			c7.6,6,11.7,4.6,16.9,17.5c7.3,18.2,15.2,30.5,37.3,42.6c9.1,5,46,90.9,39.3,99c-6.6,8.1-24.1-0.8-16.4,12.2
			c7.7,13.1,41,8.8,55.2,9.1c11.9-8,17.6-11.7,22.7-26.4c2.6-7.6,1.2-22.4-1.9-31.3c-1.6-4.8-3-10.6-4.6-15.5
			c-0.8-2.5-1.6-6.4-1.5-8.8c0.1-4.1,1.2-6.2,5.1-3.5c5.1,3.5,8.4,8.8,13.6,12.6c11.9,8.6,20.1,14.1,34.9,21.6
			c6.8,3.4,30.6,18.9,26.1,30c-2.6,6.4-22.7,8.8-11,15.8c6.5,3.9,45.1,3.4,54.4,3.1c39.7-1.6,44.6,9.2,78.9-21.2
			c59.2-52.5-13.9-171-79.6-189.7c-41.8-21-90.5-5.4-127.9-25.8c-20.4-7.2-37.2-5.7-57.3,1.5c-15.2,1.5-26.8,2.9-42.1-1.8
			c-14.4-4.4-30.9-8.5-46.9-9.2c-2.9-0.1-6.6,0.1-9.8,0.9c-5.1,1.3-8.3,5.4-13.8,6.5c-5.1,1-9.9,0.5-15.7-0.2
			C50.1,121.2,42.8,120.1,37.3,123.8z"/>
	</g>
	<path class="st22" d="M52.9,121.7c-5.2-0.5-11-0.8-15.6,2.3c-1.4,10.5,1.6,17.4,7.7,23.3C58.8,134.1,52.9,121.7,52.9,121.7z"/>
	<path class="st23" d="M37,130.6c5.7-4.1,4.2-8.3,4.2-8.4c-1.4,0.4-2.7,1-3.9,1.8C37,126.4,36.9,128.6,37,130.6z"/>
	<path class="st24" d="M85.1,128.6c0,0,0.6,7.3,8.8,3.9C94,132.5,93.3,125.6,85.1,128.6z"/>
	<path class="st20" d="M125.7,135.2l-2.1,13.3c-0.1,0.7,0.4,1.3,1.1,1.3c1.9,0,5.8-0.3,8.8-2.7c5.1-4,7.9-12-6.7-12.7
		C126.3,134.3,125.8,134.7,125.7,135.2z"/>
	<path class="st25" d="M154.2,242.9c0,0,56.6-76.6,31.8-117.9c0,0,22.1,36.8-36.7,115.1L154.2,242.9z"/>
	<path class="st26" d="M192.8,342.6c0,0,1-0.9,1.2-1.8c0,0,25.8,0.1,42.2,19.8C236.2,360.6,220.9,341.1,192.8,342.6z"/>
	<path class="st27" d="M370.2,360.8c39.7-1.6,44.6,9.2,78.9-21.2c25.3-22.5,26.4-57.1,14.2-90.7c-9.3,35.7-39.9,105.9-135.9,89.7
		c0.1,1.1-0.1,2.2-0.5,3.3c-2.6,6.4-22.7,8.8-11,15.8C322.3,361.7,360.9,361.2,370.2,360.8z"/>
	<path class="st28" d="M325.7,343.6c-4.9,5.2-20.6,7.7-9.9,14.1c5.3,3.2,32,3.5,46.7,3.3c8.3-1.6,16.5-3.6,23.6-6.2
		C374.3,350.2,350.4,342.4,325.7,343.6z"/>
</g>
</svg>
