<?xml version="1.0" encoding="utf-8"?>
<!-- Generator: Adobe Illustrator 22.1.0, SVG Export Plug-In . SVG Version: 6.00 Build 0)  -->
<svg version="1.1" id="Слой_1" xmlns="http://www.w3.org/2000/svg" xmlns:xlink="http://www.w3.org/1999/xlink" x="0px" y="0px"
	 viewBox="0 0 512 512" style="enable-background:new 0 0 512 512;" xml:space="preserve">
<style type="text/css">
	.st0{display:none;}
	.st1{fill:#E2E2E2;}
	.st2{fill:#686768;}
	.st3{fill:#272624;}
	.st4{fill:#AEAEAF;}
	.st5{fill:#828282;fill-opacity:0.64;}
	.st6{fill:#C3C3C4;}
</style>
<g id="Слой_1_1_" class="st0">
	
		<image style="display:inline;overflow:visible;enable-background:new    ;" width="125" height="185" xlink:href="A5F8E191.jpg"  transform="matrix(2.7674 0 0 2.7674 83.0385 1.707122e-02)">
	</image>
</g>
<path class="st1" d="M497.7,264.8c0-39.4-8.1-61.6-18.6-75.2c-4.5-5.9-7.1-13.1-9.3-20.1c-1.7-5.5-3.5-11.4-4.4-17.3
	c-1-6.1-0.1-11.9-0.3-17.8c-0.1-7-1.2-12.9-2.9-17.9c4.5-3,10.4-9,6.8-18.2c-2-5.2-9.3-3.2-17.5,1.5C438,87.5,419.6,88,419.6,88
	s-17.6-0.6-30.9,10.8c-8.2-4.7-15.6-6.8-17.6-1.6c-3.5,8.8,1.9,14.7,6.3,17.8c-2,5.3-3.3,11.5-3.4,19.1c-0.3,14.7-2.6,28.6-7.9,42.3
	c-1.7,4.5-3.8,9-6.8,12.9c-10.4,13.5-18.6,35.8-18.6,75.2c0,0-15.9,17.7-13.5,59.4c2.3,41.7,9.8,44.8,23.3,47.2v5.3
	c0,0-19,17,12,17.8c30.9,0.9,39.1-7.8,39.1-7.8V375c8.5,0.5,15.1,0.7,17.3,0.8c0,0,0.1,0,0.3,0c0.2,0,0.3,0,0.3,0
	c2.4-0.1,10-0.5,19.6-0.9v0.1v11.6c0,0,8.1,8.7,39.1,7.8c30.9-0.9,12-17.8,12-17.8v-5.3l-0.1-0.5c12.1-2.4,18.9-7.5,21-46.7
	C513.7,282.4,497.7,264.8,497.7,264.8z"/>
<path class="st2" d="M401.6,375.2c18.5,5,36.1,0,36.1,0l0.8-22.4h-37.6L401.6,375.2z"/>
<path class="st2" d="M500.3,289.6c-0.1,3.3-0.1,6.3-0.2,9.3C500.4,292.6,500.3,289.6,500.3,289.6z"/>
<path class="st2" d="M500.1,298.8c-0.6,12.1-2.6,35.9-9.6,72.4c0,0,15.5-1,17.5-18.3C507.9,352.9,499.3,353,500.1,298.8z"/>
<path class="st2" d="M331.2,353.4c3.8,18.9,19.4,17.7,19.4,17.7c-7.9-55-8.7-82.1-8.7-82.1C343.9,352.5,331.2,353.4,331.2,353.4z"/>
<path class="st3" d="M411.3,155.9c0,0,9.5-14.2,18.7,0.6C430,156.5,421,173.8,411.3,155.9z"/>
<path class="st3" d="M437,136.2c0,0-2.3,10.7,7.1,5C451.5,136.8,439.8,126.7,437,136.2z"/>
<path class="st3" d="M404.1,135.7c0,0,2.3,10.7-7.1,5C389.7,136.2,401.2,126.1,404.1,135.7z"/>
<path class="st4" d="M447.5,383.5c-1.9-9.5,7.7-91.4,7-110.9c-0.7-19.4-5.1-25.5-7.8-22.8c0,0-0.9,63.2-27.2,66.4
	c-26.3-3.2-27.2-66.4-27.2-66.4c-2.7-2.7-7.1,3.4-7.8,22.8c-0.7,19.4,8.9,101.3,7,110.9c-1.9,9.5-44.3,7.7-44.3,7.7
	c1.9,1.5,2.3,1.7,5.1,2.4c14.1,2.8,31,1,39.4-1.6c7.6-2.3,10-5.1,10-5.1l-1.1-34c3.7,7.2,18.7,6,18.7,6s15,1.4,18.7-6l-1.1,34
	c0,0,7.3,4,17,6.1c13.8,3,32.1,4.1,39.7-1.7C493.9,391.3,449.4,393,447.5,383.5z"/>
<path class="st4" d="M392.6,174.3c0.5,1.9,1.1,3.8,2,5.6c1.4,2.5,3.2,4.7,5.2,6.7c2.8,2.5,6.2,4.3,9.8,5.5c3,1,6.3,1.7,9.6,1.9
	c3,0.1,6.1-0.3,9-1c4.3-1,8.4-2.8,11.9-5.5c2.5-2,4.6-4.4,6.1-7.2c1-1.9,1.8-4,2.3-6.1c0.1-0.7,0.5-1.5,0.3-2.1
	c-5.2,5-11.7,8.2-18.9,9.4c-3.2,0.6-6.3,0.7-9.6,0.7c-1.9,0-3.8-0.1-5.6-0.2c-2.7-0.2-5.4-0.7-7.9-1.4c-5.5-1.6-10.6-4.5-14.8-8.5
	c0.1,0.1,0,0.6,0.1,0.7C392.4,173.2,392.5,173.7,392.6,174.3z"/>
<path class="st4" d="M386,102.8c0,0-16.4-8.9-8.1,8.5C377.8,111.2,381.9,103.5,386,102.8z"/>
<path class="st4" d="M461.9,111.4c10-16.3-7.1-9.3-7.1-9.3C458.8,103.3,461.9,111.4,461.9,111.4z"/>
<path class="st5" d="M357.4,378.5h-315c-23.4,0-42.4-19-42.4-42.4v-71.2c0-13.8,11.2-25.1,25.1-25.1h273.1
	c32.6,0,59.2,26.5,59.2,59.2v79.6H357.4z"/>
<path class="st6" d="M68.9,266c-7.7,0.3-13.9,6.7-13.9,14.5v71.7h28.2v-57.9h220.1V266H68.9z"/>
<path class="st6" d="M112.3,329.8c-1-1-2-1.8-3.3-2.5c-1.2-0.7-2.5-1.4-3.7-1.9c-1.2-0.6-2.5-1.1-3.7-1.8c-1.2-0.6-2.4-1.2-3.3-1.9
	c-0.9-0.7-1.7-1.5-2.3-2.4c-0.6-0.9-0.9-2-0.9-3.3c0-0.9,0.1-1.7,0.5-2.5s0.8-1.5,1.4-2c0.6-0.6,1.4-1,2.3-1.4
	c0.9-0.3,2-0.5,3.3-0.5c1.4,0,2.6,0.1,3.6,0.5c1.1,0.3,2,0.7,2.8,1.1c0.8,0.5,1.5,0.8,2,1.1c0.6,0.3,0.9,0.5,1.2,0.5
	c0.1,0,0.3,0,0.5-0.1c0.1-0.1,0.2-0.2,0.3-0.5c0.1-0.2,0.1-0.5,0.1-0.8c0-0.3,0-0.7,0-1.1s0-0.8,0-1.1c0-0.2-0.1-0.6-0.1-0.7
	c0-0.2-0.1-0.3-0.2-0.5c-0.1-0.1-0.2-0.3-0.5-0.6c-0.2-0.2-0.7-0.6-1.4-0.9c-0.7-0.3-1.5-0.7-2.4-1c-0.9-0.3-1.8-0.6-2.8-0.7
	c-1-0.2-2-0.2-3-0.2c-1.9,0-3.7,0.2-5.4,0.8c-1.7,0.6-3.2,1.2-4.3,2.3c-1.2,1-2.1,2.3-2.8,3.7c-0.7,1.5-1,3.2-1,5s0.3,3.4,0.9,4.7
	c0.6,1.4,1.4,2.5,2.3,3.4c0.9,1,2,1.8,3.3,2.5c1.2,0.7,2.5,1.4,3.7,1.9c1.2,0.6,2.5,1.1,3.7,1.7c1.2,0.6,2.3,1.2,3.3,1.9
	c0.9,0.7,1.7,1.5,2.3,2.4c0.6,0.9,0.9,2,0.9,3.3c0,1.1-0.2,2.3-0.7,3.2c-0.5,0.9-1,1.7-1.8,2.4c-0.8,0.7-1.7,1.1-2.8,1.5
	c-1.1,0.3-2.3,0.6-3.6,0.6c-1.7,0-3.3-0.2-4.5-0.6c-1.4-0.5-2.4-0.8-3.4-1.4c-0.9-0.5-1.7-0.9-2.3-1.2c-0.6-0.3-1-0.6-1.4-0.6
	c-0.2,0-0.3,0-0.5,0.1c-0.1,0.1-0.2,0.2-0.3,0.5c-0.1,0.2-0.1,0.5-0.2,0.8c0,0.3-0.1,0.8-0.1,1.2c0,0.7,0.1,1.2,0.2,1.7
	c0.1,0.5,0.3,0.8,0.6,1c0.2,0.2,0.8,0.6,1.5,1c0.7,0.3,1.6,0.8,2.5,1.1c1,0.3,2.1,0.7,3.4,0.9c1.2,0.2,2.7,0.3,4.2,0.3
	c2.1,0,4.2-0.3,6-0.9c1.9-0.6,3.5-1.5,4.9-2.6c1.4-1.1,2.5-2.6,3.3-4.2c0.8-1.7,1.1-3.5,1.1-5.6c0-1.8-0.3-3.3-0.9-4.6
	C114.2,331.9,113.4,330.7,112.3,329.8z"/>
<path class="st6" d="M145.1,329.8c-1-1-2-1.8-3.3-2.5c-1.2-0.7-2.5-1.4-3.7-1.9c-1.2-0.6-2.5-1.1-3.7-1.8c-1.2-0.6-2.4-1.2-3.3-1.9
	s-1.7-1.5-2.3-2.4c-0.6-0.9-0.9-2-0.9-3.3c0-0.9,0.1-1.7,0.5-2.5s0.8-1.5,1.4-2c0.6-0.6,1.4-1,2.3-1.4c0.9-0.3,2-0.5,3.3-0.5
	c1.4,0,2.6,0.1,3.6,0.5c1.1,0.3,2,0.7,2.8,1.1c0.8,0.5,1.5,0.8,2,1.1c0.6,0.3,0.9,0.5,1.2,0.5c0.1,0,0.3,0,0.5-0.1
	c0.1-0.1,0.2-0.2,0.3-0.5c0.1-0.2,0.1-0.5,0.1-0.8c0-0.3,0-0.7,0-1.1s0-0.8,0-1.1c0-0.2-0.1-0.6-0.1-0.7c0-0.2-0.1-0.3-0.2-0.5
	c-0.1-0.1-0.2-0.3-0.5-0.6c-0.2-0.2-0.7-0.6-1.4-0.9c-0.7-0.3-1.5-0.7-2.4-1c-0.9-0.3-1.8-0.6-2.8-0.7c-1-0.2-2-0.2-3-0.2
	c-1.9,0-3.7,0.2-5.4,0.8c-1.7,0.6-3.2,1.2-4.3,2.3c-1.2,1-2.1,2.3-2.8,3.7c-0.7,1.5-1,3.2-1,5s0.3,3.4,0.9,4.7
	c0.6,1.4,1.4,2.5,2.3,3.4c0.9,1,2,1.8,3.3,2.5c1.2,0.7,2.5,1.4,3.7,1.9c1.2,0.6,2.5,1.1,3.7,1.7c1.2,0.6,2.3,1.2,3.3,1.9
	c0.9,0.7,1.7,1.5,2.3,2.4c0.6,0.9,0.9,2,0.9,3.3c0,1.1-0.2,2.3-0.7,3.2c-0.5,0.9-1,1.7-1.8,2.4c-0.8,0.7-1.7,1.1-2.8,1.5
	c-1.1,0.3-2.3,0.6-3.6,0.6c-1.7,0-3.3-0.2-4.5-0.6c-1.4-0.5-2.4-0.8-3.4-1.4c-0.9-0.5-1.7-0.9-2.3-1.2c-0.6-0.3-1-0.6-1.4-0.6
	c-0.2,0-0.3,0-0.5,0.1c-0.1,0.1-0.2,0.2-0.3,0.5c-0.1,0.2-0.1,0.5-0.2,0.8c0,0.3-0.1,0.8-0.1,1.2c0,0.7,0.1,1.2,0.2,1.7
	c0.1,0.5,0.3,0.8,0.6,1c0.2,0.2,0.8,0.6,1.5,1c0.7,0.3,1.6,0.8,2.5,1.1c1,0.3,2.1,0.7,3.4,0.9c1.2,0.2,2.7,0.3,4.2,0.3
	c2.1,0,4.2-0.3,6-0.9c1.9-0.6,3.5-1.5,4.9-2.6s2.5-2.6,3.3-4.2c0.8-1.7,1.1-3.5,1.1-5.6c0-1.8-0.3-3.3-0.9-4.6
	C146.8,331.9,146,330.7,145.1,329.8z"/>
<path class="st6" d="M171.3,322.1c0.3,0,0.7-0.2,0.8-0.6c0.1-0.3,0.3-1,0.3-1.8c0-0.5,0-0.8-0.1-1.1c0-0.3-0.1-0.6-0.2-0.8
	c-0.1-0.2-0.2-0.3-0.3-0.5c-0.1-0.1-0.3-0.1-0.5-0.1h-8v-7.5c0-0.1,0-0.3-0.1-0.5c-0.1-0.1-0.2-0.2-0.5-0.3
	c-0.2-0.1-0.5-0.2-0.9-0.2c-0.3,0-0.8-0.1-1.5-0.1c-0.6,0-1,0-1.4,0.1c-0.3,0-0.7,0.1-0.9,0.2c-0.2,0.1-0.3,0.2-0.5,0.3
	c-0.1,0.1-0.1,0.3-0.1,0.5v7.5h-4.3c-0.2,0-0.3,0-0.5,0.1c-0.1,0.1-0.2,0.2-0.3,0.5c-0.1,0.2-0.1,0.5-0.2,0.8
	c-0.1,0.3-0.1,0.7-0.1,1.1c0,0.8,0.1,1.5,0.3,1.8c0.2,0.3,0.5,0.6,0.8,0.6h4.4v18.3c0,1.8,0.1,3.4,0.5,4.7c0.3,1.4,0.9,2.5,1.6,3.3
	c0.8,0.9,1.7,1.5,2.8,1.9c1.1,0.5,2.6,0.7,4.2,0.7c0.6,0,1,0,1.6-0.1c0.6-0.1,1-0.1,1.5-0.2c0.5-0.1,0.9-0.2,1.2-0.5
	c0.3-0.1,0.7-0.3,0.8-0.6c0.2-0.2,0.3-0.5,0.5-0.9c0.1-0.3,0.1-0.9,0.1-1.6c0-0.5,0-0.8-0.1-1c0-0.2-0.1-0.5-0.1-0.7
	c-0.1-0.1-0.1-0.2-0.2-0.3c-0.1-0.1-0.2-0.1-0.3-0.1c-0.2,0-0.3,0-0.7,0.1c-0.2,0.1-0.6,0.2-0.8,0.3c-0.3,0.1-0.7,0.2-1.1,0.3
	c-0.5,0.1-0.9,0.1-1.5,0.1c-1.7,0-2.8-0.6-3.4-1.7c-0.7-1.1-0.9-2.7-0.9-4.9v-17.3H171.3z"/>
<path class="st6" d="M206.2,317.5c-0.2-0.1-0.5-0.2-0.9-0.2c-0.3,0-0.8,0-1.4,0c-0.6,0-1,0-1.4,0c-0.3,0-0.7,0.1-0.9,0.2
	c-0.2,0.1-0.3,0.2-0.5,0.3c-0.1,0.1-0.1,0.3-0.1,0.5v21.9c-1.6,1.9-3.2,3.5-4.5,4.5c-1.5,1-2.8,1.6-4.3,1.6c-1.1,0-2-0.2-2.9-0.7
	c-0.9-0.5-1.5-1-2-1.8c-0.6-0.8-0.9-1.7-1.2-2.8c-0.2-1.1-0.5-2.6-0.5-4.4v-18.2c0-0.2,0-0.3-0.1-0.5c-0.1-0.1-0.2-0.2-0.5-0.3
	s-0.6-0.2-0.9-0.2c-0.3,0-0.8,0-1.4,0c-0.6,0-1,0-1.4,0c-0.3,0-0.7,0.1-0.9,0.2c-0.2,0.1-0.3,0.2-0.5,0.3c-0.1,0.1-0.1,0.3-0.1,0.5
	v19c0,2.3,0.2,4.2,0.6,5.8c0.3,1.6,1,2.9,1.9,4.2c0.9,1.2,2,2.1,3.5,2.8c1.5,0.7,3.2,1,5.3,1c1.8,0,3.5-0.5,5.3-1.4
	c1.8-0.9,3.5-2.4,5.3-4.3v4.2c0,0.2,0,0.3,0.1,0.5c0.1,0.1,0.2,0.2,0.5,0.3c0.2,0.1,0.5,0.1,0.8,0.2c0.3,0.1,0.8,0.1,1.4,0.1
	c0.5,0,0.9,0,1.2-0.1c0.3,0,0.6-0.1,0.8-0.2c0.2-0.1,0.3-0.2,0.5-0.3c0.1-0.1,0.1-0.3,0.1-0.5v-31.3c0-0.2,0-0.3-0.1-0.5
	C206.5,317.7,206.4,317.6,206.2,317.5z"/>
<path class="st6" d="M243.5,302.5c-0.2-0.1-0.5-0.1-0.9-0.2c-0.3-0.1-0.8-0.1-1.5-0.1c-0.6,0-1,0-1.4,0.1s-0.7,0.1-0.9,0.2
	c-0.2,0.1-0.3,0.2-0.5,0.3c-0.1,0.1-0.1,0.3-0.1,0.5v18.2c-1.5-1.6-2.9-2.7-4.5-3.5c-1.5-0.8-3.2-1.2-5-1.2c-2.1,0-4.2,0.5-5.9,1.2
	c-1.7,0.8-3,2-4.2,3.5c-1.1,1.6-2,3.4-2.6,5.5c-0.6,2.1-0.9,4.6-0.9,7.2c0,2.3,0.2,4.4,0.7,6.4c0.5,2,1.2,3.8,2.3,5.3
	c1,1.5,2.4,2.7,4,3.6c1.6,0.9,3.6,1.4,5.9,1.4c2.1,0,4.1-0.5,5.9-1.5c1.8-1,3.5-2.4,5.1-4.2v4.2c0,0.2,0,0.3,0.1,0.5
	c0.1,0.1,0.2,0.2,0.5,0.3c0.2,0.1,0.5,0.1,0.8,0.2c0.3,0,0.7,0.1,1.2,0.1c0.5,0,0.9,0,1.1-0.1c0.3,0,0.6-0.1,0.8-0.2
	c0.2-0.1,0.3-0.2,0.5-0.3c0.1-0.1,0.1-0.3,0.1-0.5v-46.3c0-0.1,0-0.3-0.1-0.5C243.9,302.7,243.8,302.6,243.5,302.5z M238.3,340.1
	c-0.9,1.1-1.8,2.1-2.6,2.8c-0.8,0.8-1.6,1.4-2.4,1.9c-0.8,0.5-1.5,0.8-2.1,1c-0.7,0.2-1.5,0.3-2.3,0.3c-1.5,0-2.7-0.3-3.7-1
	c-1-0.7-1.8-1.7-2.4-2.8c-0.6-1.1-1-2.5-1.2-4.1c-0.2-1.5-0.3-3-0.3-4.6c0-1.5,0.1-2.9,0.5-4.4c0.3-1.5,0.8-2.7,1.4-3.8
	c0.6-1.1,1.5-2,2.5-2.7c1-0.7,2.3-1,3.7-1c1.6,0,3,0.5,4.5,1.5c1.5,1,2.9,2.5,4.5,4.4V340.1z"/>
<path class="st6" d="M259.9,317.5c-0.2-0.1-0.5-0.1-0.9-0.2c-0.3,0-0.8-0.1-1.5-0.1c-0.6,0-1,0-1.4,0.1c-0.3,0-0.7,0.1-0.9,0.2
	c-0.2,0.1-0.3,0.2-0.5,0.3c-0.1,0.1-0.1,0.3-0.1,0.5v31.3c0,0.2,0,0.3,0.1,0.5c0.1,0.1,0.2,0.2,0.5,0.3c0.2,0.1,0.6,0.1,0.9,0.2
	c0.3,0,0.8,0.1,1.4,0.1c0.6,0,1,0,1.5-0.1c0.3,0,0.7-0.1,0.9-0.2c0.2-0.1,0.3-0.2,0.5-0.3s0.1-0.3,0.1-0.5v-31.3
	c0-0.1,0-0.3-0.1-0.5C260.2,317.7,260.1,317.6,259.9,317.5z"/>
<path class="st6" d="M257.6,304.4c-1.4,0-2.3,0.2-2.8,0.7c-0.6,0.5-0.8,1.4-0.8,2.7c0,1.4,0.2,2.3,0.8,2.7c0.5,0.5,1.5,0.7,2.7,0.7
	c1.4,0,2.3-0.2,2.8-0.7c0.6-0.5,0.8-1.4,0.8-2.7c0-1.4-0.2-2.3-0.8-2.7C259.9,304.6,259,304.4,257.6,304.4z"/>
<path class="st6" d="M296.2,321.2c-1.2-1.5-2.8-2.6-4.7-3.4c-1.9-0.8-4.2-1.1-6.8-1.1c-2.7,0-5,0.5-7,1.2c-2,0.9-3.6,2-5,3.6
	c-1.4,1.6-2.4,3.4-2.9,5.5c-0.7,2.1-1,4.5-1,7c0,2.6,0.3,5,0.9,7.1c0.6,2.1,1.6,3.8,2.8,5.3c1.2,1.5,2.8,2.6,4.7,3.4
	c1.9,0.8,4.2,1.1,6.8,1.1c2.6,0,5-0.5,7-1.4c2-0.9,3.7-2,5-3.6c1.4-1.6,2.4-3.4,3-5.5c0.7-2.1,1-4.5,1-7c0-2.6-0.3-5-0.9-7
	C298.5,324.5,297.6,322.7,296.2,321.2z M293.7,339c-0.3,1.5-0.9,2.8-1.8,3.8c-0.8,1.1-1.8,1.9-3,2.5c-1.2,0.6-2.7,0.9-4.4,0.9
	c-1.8,0-3.4-0.3-4.6-1c-1.2-0.7-2.3-1.6-2.9-2.7c-0.7-1.1-1.2-2.5-1.6-4c-0.3-1.5-0.5-3.2-0.5-4.9c0-1.8,0.2-3.4,0.6-5
	c0.3-1.6,1-2.8,1.8-4s1.8-1.9,3-2.6c1.2-0.7,2.7-0.9,4.4-0.9c1.8,0,3.4,0.3,4.6,1c1.2,0.7,2.3,1.6,2.9,2.7c0.7,1.1,1.2,2.5,1.6,4
	c0.3,1.5,0.5,3,0.5,4.7C294.2,335.8,294,337.5,293.7,339z"/>
</svg>
