<svg width="1060" height="901" viewBox="0 0 1060 901" fill="none" xmlns="http://www.w3.org/2000/svg">
<path fill-rule="evenodd" clip-rule="evenodd" d="M114.85 0H1060V285.3H224.47V901H0V131.834H0.326782C4.70642 58.0599 53.1433 0 112.235 0H114.85ZM550.224 608.668C530.427 599.251 505.8 591.219 476.224 584.295C475.137 584.018 473.93 583.741 472.482 583.464C472.275 583.421 472.071 583.378 471.869 583.335C470.777 583.105 469.758 582.889 468.739 582.772C467.894 582.495 467.05 582.357 466.205 582.218L466.204 582.218C465.359 582.08 464.635 581.941 463.669 581.664C438.439 576.125 418.641 570.724 404.517 565.462C390.272 560.2 378.442 552.168 368.905 541.228C359.368 530.288 354.66 515.332 354.66 496.36V495.945C354.66 468.249 363.834 446.923 382.304 431.828C400.775 416.734 426.608 409.118 459.927 409.118C478.517 409.118 496.987 412.995 515.457 420.75C526.926 425.597 538.394 431.828 549.862 439.722C562.176 448.169 578.111 444.153 586.561 430.721L609.739 393.885C593.804 381.006 577.748 370.205 561.331 361.757C544.913 353.31 528.254 346.801 511.353 342.509C494.452 338.216 477.31 336 459.927 336C423.47 336 392.324 342.37 366.37 354.972C340.415 367.712 320.738 386.13 307.217 410.364C293.697 434.598 286.937 463.817 286.937 498.161V498.576C286.937 537.627 294.18 567.816 308.787 589.004C323.273 610.191 340.777 624.732 361.299 632.763C381.701 640.795 408.259 647.996 440.974 654.228L446.044 655.336C446.768 655.613 447.493 655.751 448.217 655.751C448.941 655.751 449.786 655.89 450.39 656.167C472.482 660.736 490.589 665.722 504.593 671.261C518.596 676.662 529.944 685.109 538.756 696.326C547.569 707.681 552.035 722.914 552.035 742.163V742.578C552.035 769.721 542.257 790.77 522.821 805.587C503.386 820.404 475.982 827.882 440.612 827.882C414.416 827.882 390.151 823.312 367.818 814.173C353.815 808.495 340.536 801.017 328.102 791.6C315.064 781.907 297.922 784.953 288.144 798.525L264 832.452C279.814 847.685 296.956 860.425 315.185 870.534C333.413 880.643 352.97 888.26 374.096 893.384C395.101 898.507 405.603 901 405.603 901H440.853C478.638 901 510.87 894.768 537.67 882.167C564.349 869.565 584.75 851.286 598.874 827.328C612.998 803.371 620 774.429 620 740.778V740.086C620 703.804 613.36 675.138 600.081 654.228C586.561 633.179 570.022 617.946 550.224 608.668ZM960.345 608.529C940.547 599.113 915.921 591.081 886.344 584.157C885.258 583.88 884.051 583.603 882.602 583.326C882.398 583.283 882.196 583.241 881.996 583.198L881.99 583.197C880.898 582.966 879.879 582.75 878.86 582.634C878.015 582.357 877.171 582.218 876.326 582.08L876.325 582.08C875.48 581.941 874.756 581.803 873.79 581.526C848.56 575.986 828.762 570.586 814.638 565.323C800.393 560.061 788.562 552.029 779.025 541.089C769.489 530.149 764.781 515.194 764.781 496.222V495.806C764.781 468.11 773.955 446.784 792.425 431.69C810.895 416.596 836.729 408.979 870.047 408.979C888.638 408.979 907.108 412.857 925.578 420.611C936.443 425.181 947.428 431.136 958.414 438.475C971.814 447.338 988.835 443.184 997.889 428.92L1019.98 393.885C1004.05 381.006 987.99 370.205 971.572 361.757C955.154 353.31 938.495 346.801 921.594 342.509C904.694 338.216 887.552 336 870.168 336C833.711 336 802.566 342.37 776.611 354.972C750.656 367.712 730.979 386.13 717.459 410.364C703.938 434.598 697.178 463.817 697.178 498.161V498.576C697.178 537.627 704.421 567.816 719.028 589.004C733.514 610.191 751.019 624.732 771.541 632.763C791.942 640.795 818.5 647.996 851.215 654.228L856.286 655.336C857.01 655.613 857.734 655.751 858.458 655.751C859.183 655.751 860.028 655.89 860.631 656.167C882.723 660.737 900.831 665.722 914.834 671.261C928.838 676.662 940.185 685.109 948.998 696.326C957.81 707.681 962.277 722.914 962.277 742.163V742.578C962.277 769.721 952.499 790.77 933.063 805.587C913.627 820.404 886.224 827.882 850.853 827.882C824.657 827.882 800.393 823.312 778.06 814.173C764.056 808.495 750.656 800.879 738.102 791.6C725.185 782.045 708.163 784.953 698.385 798.525L674 832.452C689.814 847.685 706.956 860.425 725.185 870.534C743.413 880.643 762.97 888.26 784.096 893.384C805.101 898.507 815.603 901 815.603 901H850.853C888.638 901 920.87 894.768 947.67 882.167C974.349 869.565 994.75 851.286 1008.87 827.328C1023 803.371 1030 774.429 1030 740.778V740.086C1030 703.804 1023.36 675.138 1010.08 654.228C996.682 633.04 980.143 617.808 960.345 608.529Z" fill="#B3B3B3"/>
</svg>
