<?xml version="1.0" encoding="utf-8"?>
<!-- Generator: Adobe Illustrator 22.1.0, SVG Export Plug-In . SVG Version: 6.00 Build 0)  -->
<svg version="1.1" id="Слой_1" xmlns="http://www.w3.org/2000/svg" xmlns:xlink="http://www.w3.org/1999/xlink" x="0px" y="0px"
	 viewBox="0 0 2360 980" style="enable-background:new 0 0 2360 980;" xml:space="preserve">
<style type="text/css">
	.st0{fill:#B3B3B3;}
</style>
<g>
	<path class="st0" d="M591.1,703.8c-16.4-6.8-36.8-12.6-61.3-17.6c-0.9-0.2-1.9-0.4-3.1-0.6c-1.1-0.2-2.1-0.4-3.1-0.5
		c-0.7-0.2-1.4-0.3-2.1-0.4c-0.7-0.1-1.3-0.2-2.1-0.4c-20.9-4-37.3-7.9-49-11.7c-11.8-3.8-21.6-9.6-29.5-17.5
		c-7.9-7.9-11.8-18.7-11.8-32.4v-0.3c0-20,7.6-35.4,22.9-46.3c15.3-10.9,36.7-16.4,64.3-16.4c15.4,0,30.7,2.8,46,8.4
		c9.5,3.5,19,8,28.5,13.7c10.2,6.1,23.4,3.2,30.4-6.5l19.2-26.6c-13.2-9.3-26.5-17.1-40.1-23.2c-13.6-6.1-27.4-10.8-41.4-13.9
		c-14-3.1-28.2-4.7-42.6-4.7c-30.2,0-56,4.6-77.5,13.7c-21.5,9.2-37.8,22.5-49,40c-11.2,17.5-16.8,38.6-16.8,63.4v0.3
		c0,28.2,6,50,18.1,65.3c12,15.3,26.5,25.8,43.5,31.6c16.9,5.8,38.9,11,66,15.5l4.2,0.8c0.6,0.2,1.2,0.3,1.8,0.3
		c0.6,0,1.3,0.1,1.8,0.3c18.3,3.3,33.3,6.9,44.9,10.9c11.6,3.9,21,10,28.3,18.1c7.3,8.2,11,19.2,11,33.1v0.3
		c0,19.6-8.1,34.8-24.2,45.5c-16.1,10.7-38.8,16.1-68.1,16.1c-21.7,0-41.8-3.3-60.3-9.9c-11.6-4.1-22.6-9.5-32.9-16.3
		c-10.8-7-25-4.8-33.1,5L354,865.4c13.1,11,27.3,20.2,42.4,27.5c15.1,7.3,31.3,12.8,48.8,16.5c17.4,3.7,26.1,5.5,26.1,5.5
		s9.7,0,29.2,0c31.3,0,58-4.5,80.2-13.6c22.1-9.1,39-22.3,50.7-39.6c11.7-17.3,17.5-38.2,17.5-62.5v-0.5c0-26.2-5.5-46.9-16.5-62
		C621.2,721.5,607.5,710.5,591.1,703.8z"/>
	<path class="st0" d="M930.4,703.8c-16.4-6.8-36.8-12.6-61.3-17.6c-0.9-0.2-1.9-0.4-3.1-0.6c-1.1-0.2-2.1-0.4-3.1-0.5
		c-0.7-0.2-1.4-0.3-2.1-0.4c-0.7-0.1-1.3-0.2-2.1-0.4c-20.9-4-37.3-7.9-49-11.7c-11.8-3.8-21.6-9.6-29.5-17.5
		c-7.9-7.9-11.8-18.7-11.8-32.4v-0.3c0-20,7.6-35.4,22.9-46.3c15.3-10.9,36.7-16.4,64.3-16.4c15.4,0,30.7,2.8,46,8.4
		c9,3.3,18.1,7.6,27.2,12.9c11.1,6.4,25.2,3.4,32.7-6.9l18.3-25.3c-13.2-9.3-26.5-17.1-40.1-23.2c-13.6-6.1-27.4-10.8-41.4-13.9
		c-14-3.1-28.2-4.7-42.6-4.7c-30.2,0-56,4.6-77.5,13.7c-21.5,9.2-37.8,22.5-49,40c-11.2,17.5-16.8,38.6-16.8,63.4v0.3
		c0,28.2,6,50,18.1,65.3c12,15.3,26.5,25.8,43.5,31.6c16.9,5.8,38.9,11,66,15.5l4.2,0.8c0.6,0.2,1.2,0.3,1.8,0.3
		c0.6,0,1.3,0.1,1.8,0.3c18.3,3.3,33.3,6.9,44.9,10.9c11.6,3.9,21,10,28.3,18.1c7.3,8.2,11,19.2,11,33.1v0.3
		c0,19.6-8.1,34.8-24.2,45.5c-16.1,10.7-38.8,16.1-68.1,16.1c-21.7,0-41.8-3.3-60.3-9.9c-11.6-4.1-22.7-9.6-33.1-16.3
		c-10.7-6.9-24.8-4.8-32.9,5l-20.2,24.5c13.1,11,27.3,20.2,42.4,27.5c15.1,7.3,31.3,12.8,48.8,16.5c17.4,3.7,26.1,5.5,26.1,5.5
		s9.7,0,29.2,0c31.3,0,58-4.5,80.2-13.6c22.1-9.1,39-22.3,50.7-39.6c11.7-17.3,17.5-38.2,17.5-62.5v-0.5c0-26.2-5.5-46.9-16.5-62
		C960.5,721.5,946.8,710.5,930.4,703.8z"/>
	<path class="st0" d="M1127.2,542.4h-56.7v83h-29.7V676h29.7v160.5c0,24.9,5.4,43.7,16.3,56.5c10.8,12.7,27.9,19.1,51.3,19.1h32.8
		v-53.3h-27.2c-5.4,0-9.4-1.9-12.2-5.6c-2.8-3.8-4.2-9.1-4.2-16.1V676h43.6v-50.6h-43.6V542.4z"/>
	<path class="st0" d="M1422.5,805.5c0,18-5.1,31.8-15.3,41.5c-10.2,9.7-24.5,14.6-43.1,14.6c-18.7,0-33.2-5.4-43.5-16.4
		c-10.3-10.9-15.4-26.3-15.4-46.3V625.4h-56.7v173.4c0,36.8,8.7,65.4,26,85.6c17.3,20.2,41.9,30.4,73.8,30.4
		c19.4,0,35.8-4.8,49.2-14.3c10.7-7.7,19.1-16.8,25-27.5v37.6h56.4V625.4h-56.4V805.5z"/>
	<path class="st0" d="M1729,661.2c-7.8-11.4-17.3-20.6-28.5-27.6c-14.2-8.8-29.8-13.2-46.8-13.2c-20.4,0-37.8,4.5-52.4,13.6
		c-14.5,9.1-25.6,22.3-33.2,39.7c-7.6,17.4-11.4,38.4-11.4,62.9v62.9c0,24.4,3.9,45.3,11.7,62.7c7.8,17.4,19.1,30.6,34,39.7
		c14.9,9.1,32.9,13.6,54,13.6c19.1,0,35.1-4.8,48.2-14.3c10.4-7.6,18.5-16.7,24.3-27.3v36.6h56.7V511.1H1729V661.2z M1722.3,837.3
		c-4.4,8.8-10.9,15.5-19.3,20.2c-8.4,4.7-18.7,7-30.7,7c-18.7,0-33.2-5.6-43.5-16.9c-10.3-11.3-15.4-27.3-15.4-48v-62.1
		c0-20.9,5.1-37.1,15.4-48.7c10.3-11.5,24.8-17.3,43.5-17.3c12,0,22.3,2.2,30.7,6.7c8.4,4.5,14.9,11,19.3,19.7
		c4.4,8.6,6.7,19,6.7,31.1v76.7C1729,818,1726.8,828.5,1722.3,837.3z"/>
	<polygon class="st0" points="1871.8,504.8 1871.8,560.9 1928,561 2009,447.5 	"/>
	<rect x="1871.8" y="619.1" class="st0" width="56.7" height="285.3"/>
	<path class="st0" d="M2203.2,618.3c-18.9-10.2-41.7-15.3-68.2-15.3s-49.3,5.1-68.2,15.3c-18.9,10.2-33.3,25.1-43.3,44.7
		c-9.9,19.6-14.9,43.1-14.9,70.6V783c0,27.9,5,51.7,14.9,71.5c9.9,19.8,24.4,34.8,43.3,45.2c18.9,10.3,41.7,15.5,68.2,15.5
		s49.3-5.2,68.2-15.5c18.9-10.3,33.3-25.3,43.3-44.9c9.9-19.6,14.9-43.2,14.9-70.9v-50.3c0-27.5-5-51-14.9-70.6
		C2236.6,643.5,2222.1,628.6,2203.2,618.3z M2201.2,783.9c0,23.6-5.8,41.9-17.3,54.9c-11.5,13.1-27.8,19.6-48.9,19.6
		c-21.1,0-37.4-6.5-48.9-19.6c-11.5-13.1-17.3-31.4-17.3-54.9v-50.3c0-23.6,5.8-41.8,17.3-54.6c11.5-12.9,27.8-19.3,48.9-19.3
		c21.1,0,37.4,6.4,48.9,19.3c11.5,12.9,17.3,31.1,17.3,54.6V783.9z"/>
	<path class="st0" d="M2169,97h-151H175.7v0c-1.3,0-2.7,0-4,0C81.3,97,7.2,153.9,0.5,226.2H0V980h343.4V376.6H2018h151h191V97H2169z
		"/>
</g>
</svg>
