<svg width="525" height="532" viewBox="0 0 525 532" fill="none" xmlns="http://www.w3.org/2000/svg">
<path fill-rule="evenodd" clip-rule="evenodd" d="M72 0C32.2355 0 0 32.2355 0 72V453C0 492.764 32.2355 525 72 525H453C492.764 525 525 492.765 525 453V72C525 32.2355 492.765 0 453 0H72ZM84.6984 45.6984C63.1593 45.6984 45.6984 63.1593 45.6984 84.6984V441.364C45.6984 462.903 63.1593 480.364 84.6984 480.364H441.364C462.903 480.364 480.364 462.903 480.364 441.364V84.6984C480.364 63.1593 462.903 45.6984 441.364 45.6984H84.6984Z" fill="#C4C4C4"/>
<circle cx="263" cy="263" r="132" fill="#C4C4C4"/>
<circle cx="419.5" cy="106.5" r="24.5" fill="#C4C4C4"/>
</svg>
