<?xml version="1.0" encoding="utf-8"?>
<!-- Generator: Adobe Illustrator 22.1.0, SVG Export Plug-In . SVG Version: 6.00 Build 0)  -->
<svg version="1.1" id="Слой_1" xmlns="http://www.w3.org/2000/svg" xmlns:xlink="http://www.w3.org/1999/xlink" x="0px" y="0px"
	 viewBox="0 0 512 512" style="enable-background:new 0 0 512 512;" xml:space="preserve">
<style type="text/css">
	.st0{fill:#C3C3C4;}
</style>
<path class="st0" d="M449.7,363.6c82.9-82.9,82.9-217.2,0-300c-82.9-82.9-217.2-82.9-300,0C77.6,135.7,68.2,246.8,121.6,329
	L7.8,442.8c-6.7,6.7-6.7,17.5,0,24.1l38.6,38.6c6.7,6.7,17.5,6.7,24.1,0l113.8-113.8C266.5,445.1,377.6,435.7,449.7,363.6z
	 M183.9,329.4c-63.9-63.9-63.9-167.6,0-231.5s167.6-63.9,231.5,0s63.9,167.6,0,231.5S247.9,393.3,183.9,329.4z"/>
</svg>
