<?xml version="1.0" encoding="utf-8"?>
<!-- Generator: Adobe Illustrator 22.1.0, SVG Export Plug-In . SVG Version: 6.00 Build 0)  -->
<svg version="1.1" id="Слой_1" xmlns="http://www.w3.org/2000/svg" xmlns:xlink="http://www.w3.org/1999/xlink" x="0px" y="0px"
	 viewBox="0 0 128 128" style="enable-background:new 0 0 128 128;" xml:space="preserve">
<style type="text/css">
	.st0{fill:#F1F0A4;}
	.st1{fill:#F9E072;}
	.st2{fill:#C9C998;}
	.st3{fill:#C7C769;}
	.st4{fill:#C9C874;}
	.st5{fill:#B9B76E;}
	.st6{fill:#B8B76B;}
	.st7{fill:url(#SVGID_1_);}
	.st8{fill:url(#SVGID_2_);}
</style>
<ellipse class="st0" cx="64" cy="64.4" rx="63.9" ry="64"/>
<g>
	<g>
		<path class="st1" d="M93,106.9C93,106.9,93,106.9,93,106.9C93,106.9,93,106.9,93,106.9z"/>
	</g>
</g>
<path class="st2" d="M-3.4,9.1"/>
<ellipse transform="matrix(0.3757 -0.9268 0.9268 0.3757 -0.7022 49.4912)" class="st3" cx="36.4" cy="25.3" rx="10.9" ry="9.7"/>
<ellipse transform="matrix(0.5083 -0.8612 0.8612 0.5083 -45.6653 48.5225)" class="st4" cx="19.7" cy="64.3" rx="11" ry="8.9"/>
<ellipse transform="matrix(0.6863 -0.7273 0.7273 0.6863 12.5527 67.0656)" class="st3" cx="84" cy="19" rx="10.2" ry="10.9"/>
<circle class="st3" cx="104.6" cy="53.1" r="5.2"/>
<path class="st5" d="M104.6,47.9c-0.1,0-0.1,0-0.2,0c2.8,0.1,5,2.4,5,5.2s-2.2,5.1-5,5.2c0.1,0,0.1,0,0.2,0c2.9,0,5.2-2.3,5.2-5.2
	S107.4,47.9,104.6,47.9z"/>
<ellipse class="st3" cx="64.3" cy="60.3" rx="12.1" ry="12.1"/>
<path class="st6" d="M12,59.7c3-5.1,8.7-7.3,12.9-5.1c-0.1-0.1-0.2-0.1-0.3-0.2c-4.5-2.7-10.7-0.6-13.8,4.6s-1.9,11.6,2.6,14.3
	c0.1,0.1,0.2,0.1,0.3,0.2C9.8,70.9,9,64.9,12,59.7z"/>
<ellipse transform="matrix(0.9366 -0.3504 0.3504 0.9366 -29.8127 31.8574)" class="st4" cx="73.1" cy="98.3" rx="22.4" ry="18.8"/>
<path class="st6" d="M79.7,115.9c-11.3,4.2-23.3,0.2-27.3-9.1c0.1,0.2,0.1,0.5,0.2,0.7c3.9,10.5,16.5,15.4,28.1,11.1
	c11.6-4.3,17.8-16.3,13.9-26.8c-0.1-0.2-0.2-0.5-0.3-0.7C97.4,100.7,91,111.7,79.7,115.9z"/>
<linearGradient id="SVGID_1_" gradientUnits="userSpaceOnUse" x1="36.6041" y1="73.9634" x2="121.0952" y2="73.9634">
	<stop  offset="0" style="stop-color:#FFF359;stop-opacity:0.2"/>
	<stop  offset="0.4419" style="stop-color:#F9EF55;stop-opacity:0.2"/>
	<stop  offset="1" style="stop-color:#F6ED54;stop-opacity:0.2"/>
</linearGradient>
<path class="st7" d="M102.4,26.5c12.4,16.9,14.7,40.2,4.1,59.9c-13.6,25.3-43.8,35.9-69.9,25.8c1.5,1,3.1,2,4.8,2.9
	c26.3,14.2,59.1,4.3,73.3-22C126.9,70.3,121.1,42.7,102.4,26.5z"/>
<linearGradient id="SVGID_2_" gradientUnits="userSpaceOnUse" x1="13.9881" y1="67.9054" x2="127.9359" y2="67.9054">
	<stop  offset="0" style="stop-color:#000000;stop-opacity:0.1"/>
	<stop  offset="1" style="stop-color:#000000;stop-opacity:0.1"/>
</linearGradient>
<path class="st8" d="M127.9,64.4c0-24-13.2-44.9-32.7-55.8C77.2,2.6,65.3,22,70.8,31.3c5.5,9.3,1.8,34-29.3,35.8
	c-30.8,1.7-27.4,37-27.4,37.4c11.7,14.6,29.7,24,49.9,24C99.3,128.4,127.9,99.7,127.9,64.4z"/>
</svg>
