<?xml version="1.0" encoding="utf-8"?>
<!-- Generator: Adobe Illustrator 22.1.0, SVG Export Plug-In . SVG Version: 6.00 Build 0)  -->
<svg version="1.1" id="Слой_1" xmlns="http://www.w3.org/2000/svg" xmlns:xlink="http://www.w3.org/1999/xlink" x="0px" y="0px"
	 viewBox="0 0 128 128" style="enable-background:new 0 0 128 128;" xml:space="preserve">
<style type="text/css">
	.st0{fill:url(#SVGID_1_);}
	.st1{fill:#979695;}
	.st2{fill:url(#SVGID_2_);}
	.st3{fill:url(#SVGID_3_);}
	.st4{fill:url(#SVGID_4_);}
	.st5{fill:url(#SVGID_5_);}
	.st6{fill:url(#SVGID_6_);}
	.st7{fill:url(#SVGID_7_);}
	.st8{fill:url(#SVGID_8_);}
	.st9{fill:url(#SVGID_9_);}
	.st10{fill:url(#SVGID_10_);}
	.st11{fill:url(#SVGID_11_);}
</style>
<linearGradient id="SVGID_1_" gradientUnits="userSpaceOnUse" x1="29.125" y1="67.146" x2="98.875" y2="67.146">
	<stop  offset="0" style="stop-color:#78C0C6"/>
	<stop  offset="0.1382" style="stop-color:#6DA8BD"/>
	<stop  offset="0.5665" style="stop-color:#5973A6"/>
	<stop  offset="0.8625" style="stop-color:#50619F"/>
	<stop  offset="1" style="stop-color:#4D5B9D"/>
</linearGradient>
<circle class="st0" cx="64" cy="67.1" r="34.9"/>
<path class="st1" d="M127.2,89.3c-2.8-6.6-13.4-14.7-28.4-22.2c0,0.2,0,0.4,0,0.6c10.4,6.2,16.4,12.6,15.2,17.2c0,0,0,0,0,0.1
	c-0.1,0.2-0.1,0.4-0.2,0.6c0,0,0,0.1,0,0.1c-0.1,0.2-0.2,0.3-0.3,0.5c-0.1,0.1-0.1,0.2-0.2,0.2c-0.1,0.1-0.2,0.3-0.4,0.4
	c-0.1,0.1-0.2,0.2-0.3,0.3c-0.1,0.1-0.3,0.3-0.4,0.4c-0.1,0.1-0.2,0.2-0.3,0.3c-0.2,0.1-0.3,0.2-0.5,0.3c-0.3,0.2-0.5,0.3-0.8,0.5
	c-0.2,0.1-0.3,0.2-0.5,0.2c-0.2,0.1-0.4,0.2-0.7,0.3c-0.2,0.1-0.3,0.1-0.5,0.2c-0.2,0.1-0.5,0.2-0.8,0.2c-0.2,0-0.3,0.1-0.5,0.1
	c-0.3,0.1-0.6,0.2-1,0.2c-0.1,0-0.3,0.1-0.4,0.1c-1,0.2-2.1,0.4-3.3,0.5c0,0,0,0-0.1,0c-0.6,0.1-1.2,0.1-1.8,0.1c-0.1,0-0.1,0-0.2,0
	c-0.6,0-1.2,0-1.9,0.1c0,0-0.1,0-0.1,0c-2.8,0-5.9-0.1-9.2-0.5c0,0,0,0,0,0c-8.7-0.9-19-3.1-29.8-6.6C48,79.8,37.3,75,29.3,70.2
	c0,0,0,0,0,0c-10.6-6.3-16.6-12.7-15.4-17.3c1.2-4.5,9.3-6.3,21-5.5c0-0.1,0.1-0.1,0.1-0.2C18.8,45,6.4,46.2,1.9,50.7
	c-0.8,0.7-1.4,1.6-1.7,2.7c-0.1,0.2-0.1,0.4-0.1,0.6c0,0.1,0,0.1,0,0.2c0,0.2,0,0.4,0,0.6c0,0.1,0,0.1,0,0.2c0,0.7,0.1,1.4,0.3,2.2
	c0,0,0,0.1,0,0.1c0.1,0.3,0.2,0.5,0.3,0.8c0,0,0,0.1,0,0.1c4.2,10.4,27.8,24.7,58.2,34.4c15.8,5.1,30.8,8,42.7,8.8c0,0,0.1,0,0.1,0
	c1.9,0.1,3.8,0.2,5.6,0.2c0,0,0,0,0,0c0.5,0,0.9,0,1.4,0c0.2,0,0.4,0,0.6,0c0.4,0,0.8,0,1.2,0c0.3,0,0.5,0,0.8,0
	c0.4,0,0.7,0,1.1-0.1c0.3,0,0.7-0.1,1-0.1c0.4,0,0.8-0.1,1.2-0.1c0.4,0,0.8-0.1,1.2-0.1c0.2,0,0.4-0.1,0.6-0.1
	c0.3-0.1,0.7-0.1,1-0.2c0.2,0,0.4-0.1,0.6-0.1c0.4-0.1,0.7-0.2,1.1-0.2c0.1,0,0.3-0.1,0.4-0.1c1-0.2,1.9-0.5,2.7-0.9
	c0.1,0,0.1,0,0.2-0.1c0.4-0.1,0.7-0.3,1-0.5c0.1,0,0.1-0.1,0.2-0.1c0.3-0.2,0.7-0.4,1-0.5c0,0,0,0,0.1,0c1-0.6,1.8-1.4,2.4-2.2
	c0,0,0,0,0,0c0.4-0.6,0.7-1.1,0.9-1.8c0.1-0.4,0.2-0.9,0.2-1.4C128.1,91.6,127.8,90.4,127.2,89.3z"/>
<linearGradient id="SVGID_2_" gradientUnits="userSpaceOnUse" x1="30.3699" y1="80.4759" x2="98.875" y2="80.4759">
	<stop  offset="0" style="stop-color:#000000;stop-opacity:0.1"/>
	<stop  offset="1" style="stop-color:#000000;stop-opacity:0.1"/>
</linearGradient>
<path class="st2" d="M86.8,65.2C74.7,57.2,59,54.8,50.2,70.4c-4.8,8.4-12.8,8.6-19.8,6c4.9,18,23.3,29,41.6,24.7
	c18.2-4.3,29.7-22.1,26.3-40.3C95,65.3,91.1,68,86.8,65.2z"/>
<linearGradient id="SVGID_3_" gradientUnits="userSpaceOnUse" x1="48.1213" y1="-1.5116" x2="60.8649" y2="-1.5116" gradientTransform="matrix(0.8887 -0.4585 0.4585 0.8887 7.9576 68.0707)">
	<stop  offset="0" style="stop-color:#000000;stop-opacity:0.1"/>
	<stop  offset="1" style="stop-color:#000000;stop-opacity:0.1"/>
</linearGradient>
<path class="st3" d="M61.3,38.8c0.5,0.9-1.7,3-4.8,4.6c-3.1,1.6-6,2.2-6.5,1.3s1.7-3,4.8-4.6C58,38.5,60.9,37.9,61.3,38.8z"/>
<linearGradient id="SVGID_4_" gradientUnits="userSpaceOnUse" x1="51.8893" y1="51.7625" x2="62.74" y2="51.7625" gradientTransform="matrix(0.9954 9.551713e-02 -9.551713e-02 0.9954 3.4548 -15.6112)">
	<stop  offset="0" style="stop-color:#000000;stop-opacity:0.2"/>
	<stop  offset="1" style="stop-color:#000000;stop-opacity:0.2"/>
</linearGradient>
<path class="st4" d="M54.9,40.1c3-1.6,5.8-2.2,6.4-1.4c0,0,0-0.1,0-0.1c-0.5-1-3.4-0.4-6.5,1.2c-3.1,1.6-5.3,3.7-4.8,4.7
	c0,0,0.1,0.1,0.1,0.1C49.8,43.6,51.9,41.6,54.9,40.1z"/>
<linearGradient id="SVGID_5_" gradientUnits="userSpaceOnUse" x1="79.306" y1="-62.3482" x2="94.9874" y2="-62.3482" gradientTransform="matrix(0.2521 -0.9677 0.9677 0.2521 77.4511 165.5144)">
	<stop  offset="0" style="stop-color:#000000;stop-opacity:0.1"/>
	<stop  offset="1" style="stop-color:#000000;stop-opacity:0.1"/>
</linearGradient>
<path class="st5" d="M42.3,58.2c1.8,0.3,1.8,3.7,0,7.7c-1.8,4-4.7,7-6.5,6.8s-1.8-3.7,0-7.7C37.7,61,40.6,58,42.3,58.2z"/>
<linearGradient id="SVGID_6_" gradientUnits="userSpaceOnUse" x1="44.1058" y1="-17.4577" x2="59.1584" y2="-17.4577" gradientTransform="matrix(0.7357 -0.6773 0.6773 0.7357 12.1476 112.994)">
	<stop  offset="0" style="stop-color:#000000;stop-opacity:0.2"/>
	<stop  offset="1" style="stop-color:#000000;stop-opacity:0.2"/>
</linearGradient>
<path class="st6" d="M35.9,65c1.7-3.9,4.5-6.8,6.2-6.8c-0.1,0-0.1-0.1-0.2-0.1c-1.9-0.3-4.9,2.7-6.6,6.7c-1.8,4-1.8,7.5,0.1,7.8
	c0.1,0,0.2,0,0.3,0C34.1,72.2,34.2,68.8,35.9,65z"/>
<linearGradient id="SVGID_7_" gradientUnits="userSpaceOnUse" x1="97.4916" y1="125.9902" x2="114.275" y2="125.9902" gradientTransform="matrix(0.7297 0.6838 -0.6838 0.7297 89.3197 -116.8239)">
	<stop  offset="0" style="stop-color:#000000;stop-opacity:0.1"/>
	<stop  offset="1" style="stop-color:#000000;stop-opacity:0.1"/>
</linearGradient>
<path class="st7" d="M86.6,53.2c-0.9,1-4.4-0.8-7.8-4s-5.4-6.5-4.5-7.5s4.4,0.8,7.8,4C85.5,48.9,87.5,52.3,86.6,53.2z"/>
<linearGradient id="SVGID_8_" gradientUnits="userSpaceOnUse" x1="162.3133" y1="131.0526" x2="176.6597" y2="131.0526" gradientTransform="matrix(0.2435 0.9699 -0.9699 0.2435 166.6575 -149.1011)">
	<stop  offset="0" style="stop-color:#000000;stop-opacity:0.2"/>
	<stop  offset="1" style="stop-color:#000000;stop-opacity:0.2"/>
</linearGradient>
<path class="st8" d="M82.1,45.8c3.3,3,5.2,6.3,4.5,7.4c0,0,0.1,0,0.1-0.1c1-1-1-4.5-4.4-7.6c-3.4-3.2-6.9-4.9-7.9-3.9
	c0,0-0.1,0.1-0.1,0.2C75.5,40.9,78.9,42.7,82.1,45.8z"/>
<linearGradient id="SVGID_9_" gradientUnits="userSpaceOnUse" x1="189.2039" y1="165.5564" x2="206.0043" y2="165.5564" gradientTransform="matrix(3.249766e-02 0.9995 -0.9995 3.249766e-02 247.7519 -133.4188)">
	<stop  offset="0" style="stop-color:#000000;stop-opacity:0.1"/>
	<stop  offset="1" style="stop-color:#000000;stop-opacity:0.1"/>
</linearGradient>
<path class="st9" d="M89.2,77.8c-2.6,0-4.9-3.7-5.2-8.3c-0.3-4.6,1.6-8.4,4.2-8.5s4.9,3.7,5.2,8.3C93.7,74,91.8,77.8,89.2,77.8z"/>
<linearGradient id="SVGID_10_" gradientUnits="userSpaceOnUse" x1="260.4908" y1="113.951" x2="275.0002" y2="113.951" gradientTransform="matrix(-0.5137 0.858 -0.858 -0.5137 325.2614 -101.5561)">
	<stop  offset="0" style="stop-color:#000000;stop-opacity:0.2"/>
	<stop  offset="1" style="stop-color:#000000;stop-opacity:0.2"/>
</linearGradient>
<path class="st10" d="M93.4,69.4c0.3,4.5-1.4,8.1-3.9,8.4c0.1,0,0.2,0,0.3,0c2.7,0,4.7-3.8,4.4-8.5C94,64.8,91.5,61,88.8,61
	c-0.1,0-0.3,0-0.4,0C90.9,61.3,93.1,65,93.4,69.4z"/>
<radialGradient id="SVGID_11_" cx="64.0067" cy="73.8331" r="67.0518" gradientTransform="matrix(0.9516 0.3072 -8.858306e-02 0.2744 9.6357 33.9096)" gradientUnits="userSpaceOnUse">
	<stop  offset="0" style="stop-color:#5EAF61"/>
	<stop  offset="0.7091" style="stop-color:#619A90;stop-opacity:0.9606"/>
	<stop  offset="0.7106" style="stop-color:#619993;stop-opacity:0.9601"/>
	<stop  offset="0.7193" style="stop-color:#6094A0;stop-opacity:0.9571"/>
	<stop  offset="0.7291" style="stop-color:#608FAB;stop-opacity:0.9536"/>
	<stop  offset="0.7402" style="stop-color:#5F8CB4;stop-opacity:0.9498"/>
	<stop  offset="0.7532" style="stop-color:#5F89BB;stop-opacity:0.9452"/>
	<stop  offset="0.7692" style="stop-color:#6087C0;stop-opacity:0.9396"/>
	<stop  offset="0.7917" style="stop-color:#6086C3;stop-opacity:0.9318"/>
	<stop  offset="0.8542" style="stop-color:#6086C4;stop-opacity:0.91"/>
	<stop  offset="0.8917" style="stop-color:#6888C5;stop-opacity:0.9518"/>
	<stop  offset="0.926" style="stop-color:#728AC5;stop-opacity:0.99"/>
	<stop  offset="1" style="stop-color:#64BDE5;stop-opacity:0.5"/>
</radialGradient>
<path class="st11" d="M127.2,89.3c-2.8-6.6-13.4-14.7-28.4-22.2c0,0.2,0,0.4,0,0.6c10.4,6.2,16.4,12.6,15.2,17.2c0,0,0,0,0,0.1
	c-0.1,0.2-0.1,0.4-0.2,0.6c0,0,0,0.1,0,0.1c-0.1,0.2-0.2,0.3-0.3,0.5c-0.1,0.1-0.1,0.2-0.2,0.2c-0.1,0.1-0.2,0.3-0.4,0.4
	c-0.1,0.1-0.2,0.2-0.3,0.3c-0.1,0.1-0.3,0.3-0.4,0.4c-0.1,0.1-0.2,0.2-0.3,0.3c-0.2,0.1-0.3,0.2-0.5,0.3c-0.3,0.2-0.5,0.3-0.8,0.5
	c-0.2,0.1-0.3,0.2-0.5,0.2c-0.2,0.1-0.4,0.2-0.7,0.3c-0.2,0.1-0.3,0.1-0.5,0.2c-0.2,0.1-0.5,0.2-0.8,0.2c-0.2,0-0.3,0.1-0.5,0.1
	c-0.3,0.1-0.6,0.2-1,0.2c-0.1,0-0.3,0.1-0.4,0.1c-1,0.2-2.1,0.4-3.3,0.5c0,0,0,0-0.1,0c-0.6,0.1-1.2,0.1-1.8,0.1c-0.1,0-0.1,0-0.2,0
	c-0.6,0-1.2,0-1.9,0.1c0,0-0.1,0-0.1,0c-2.8,0-5.9-0.1-9.2-0.5c0,0,0,0,0,0c-8.7-0.9-19-3.1-29.8-6.6C48,79.8,37.3,75,29.3,70.2
	c0,0,0,0,0,0c-10.6-6.3-16.6-12.7-15.4-17.3c1.2-4.5,9.3-6.3,21-5.5c0-0.1,0.1-0.1,0.1-0.2C18.8,45,6.4,46.2,1.9,50.7
	c-0.8,0.7-1.4,1.6-1.7,2.7c-0.1,0.2-0.1,0.4-0.1,0.6c0,0.1,0,0.1,0,0.2c0,0.2,0,0.4,0,0.6c0,0.1,0,0.1,0,0.2c0,0.7,0.1,1.4,0.3,2.2
	c0,0,0,0.1,0,0.1c0.1,0.3,0.2,0.5,0.3,0.8c0,0,0,0.1,0,0.1c4.2,10.4,27.8,24.7,58.2,34.4c15.8,5.1,30.8,8,42.7,8.8c0,0,0.1,0,0.1,0
	c1.9,0.1,3.8,0.2,5.6,0.2c0,0,0,0,0,0c0.5,0,0.9,0,1.4,0c0.2,0,0.4,0,0.6,0c0.4,0,0.8,0,1.2,0c0.3,0,0.5,0,0.8,0
	c0.4,0,0.7,0,1.1-0.1c0.3,0,0.7-0.1,1-0.1c0.4,0,0.8-0.1,1.2-0.1c0.4,0,0.8-0.1,1.2-0.1c0.2,0,0.4-0.1,0.6-0.1
	c0.3-0.1,0.7-0.1,1-0.2c0.2,0,0.4-0.1,0.6-0.1c0.4-0.1,0.7-0.2,1.1-0.2c0.1,0,0.3-0.1,0.4-0.1c1-0.2,1.9-0.5,2.7-0.9
	c0.1,0,0.1,0,0.2-0.1c0.4-0.1,0.7-0.3,1-0.5c0.1,0,0.1-0.1,0.2-0.1c0.3-0.2,0.7-0.4,1-0.5c0,0,0,0,0.1,0c1-0.6,1.8-1.4,2.4-2.2
	c0,0,0,0,0,0c0.4-0.6,0.7-1.1,0.9-1.8c0.1-0.4,0.2-0.9,0.2-1.4C128.1,91.6,127.8,90.4,127.2,89.3z"/>
</svg>
