<?xml version="1.0" encoding="utf-8"?>
<!-- Generator: Adobe Illustrator 22.1.0, SVG Export Plug-In . SVG Version: 6.00 Build 0)  -->
<svg version="1.1" id="Слой_1" xmlns="http://www.w3.org/2000/svg" xmlns:xlink="http://www.w3.org/1999/xlink" x="0px" y="0px"
	 viewBox="0 0 128 128" style="enable-background:new 0 0 128 128;" xml:space="preserve">
<style type="text/css">
	.st0{fill:url(#SVGID_1_);}
	.st1{fill:#7F7E7C;}
	.st2{fill:#979695;}
	.st3{fill:#BE7363;}
	.st4{fill:#BD5957;}
	.st5{fill:url(#SVGID_2_);}
	.st6{fill:#484848;}
</style>
<linearGradient id="SVGID_1_" gradientUnits="userSpaceOnUse" x1="67.6233" y1="128" x2="67.6233" y2="90.1449">
	<stop  offset="0" style="stop-color:#FFF359"/>
	<stop  offset="5.948725e-02" style="stop-color:#FBDE4F"/>
	<stop  offset="0.1303" style="stop-color:#F5CE48"/>
	<stop  offset="0.2032" style="stop-color:#F1C446"/>
	<stop  offset="0.2809" style="stop-color:#F0C145"/>
	<stop  offset="0.6685" style="stop-color:#DC8A52"/>
	<stop  offset="0.8876" style="stop-color:#D46D50"/>
	<stop  offset="1" style="stop-color:#CF584F"/>
</linearGradient>
<path class="st0" d="M74.2,101.2c0-0.4,0.1-0.9,0.1-1.4c0-5.4-3-9.7-6.6-9.7c-3.7,0-6.6,4.4-6.6,9.7c0,1.1,0.1,2.1,0.3,3.1
	c0.7,5.7,2.6,18,6.3,25.1C67.6,128,74.4,114.1,74.2,101.2L74.2,101.2z"/>
<g>
	<path class="st1" d="M41.4,112.4l13.7-20L50.9,73C50.9,73,40.5,84.1,41.4,112.4z"/>
	<path class="st1" d="M83.6,73l-4,19.4l13.1,20C93.7,84.1,83.6,73,83.6,73z"/>
</g>
<path class="st2" d="M87.1,55.2c0-14.4-2.5-27.3-6.5-36.2c-3.5-7.7-10.4-19-13-19c-3.1,0-8.7,10.4-12,16.9
	c-4.6,8.9-7.5,22.8-7.5,38.3c0,15.9,3.1,30,7.8,38.9c3.3,6.1,7.4,3.1,11.8,3.1c3.9,0,7.4,3.8,10.4-1C83.5,87.5,87.1,72.4,87.1,55.2z
	"/>
<path class="st3" d="M51.1,80.9c0.5,2.1,1.1,4,1.7,5.8C59.3,89,71.4,92,82,88c0.8-2.1,1.4-4.3,2-6.6C78.5,82.6,67,84.1,51.1,80.9z"
	/>
<path class="st1" d="M67.8,74.6c-0.9,0-1.6,1.6-1.6,3.6c0,2,1.6,34.2,1.6,34.2s1.6-32.2,1.6-34.2C69.4,76.2,68.7,74.6,67.8,74.6z"/>
<path class="st4" d="M55.6,16.9c-2,3.9-3.6,8.7-4.9,14.1c7.6,2.4,19.5,4.2,33.8,0.1c-1-4.5-2.4-8.6-3.9-12.1c-3.5-7.7-10.4-19-13-19
	C64.6,0,58.9,10.4,55.6,16.9z"/>
<ellipse class="st1" cx="68.1" cy="44.7" rx="7.5" ry="6.8"/>
<linearGradient id="SVGID_2_" gradientUnits="userSpaceOnUse" x1="65.2663" y1="39.7668" x2="70.9788" y2="49.6612">
	<stop  offset="0" style="stop-color:#6086C4"/>
	<stop  offset="0.5826" style="stop-color:#99CED8"/>
	<stop  offset="1" style="stop-color:#54B7DB"/>
</linearGradient>
<ellipse class="st5" cx="68.1" cy="44.7" rx="6.1" ry="5.6"/>
<g>
	<path class="st6" d="M68.1,50.7c-0.2,0-0.3,0.1-0.3,0.3c0,0.2,0.1,0.3,0.3,0.3c0.2,0,0.3-0.1,0.3-0.3
		C68.4,50.8,68.3,50.7,68.1,50.7z"/>
	<path class="st6" d="M74.9,44.4c-0.2,0-0.3,0.1-0.3,0.3c0,0.2,0.1,0.3,0.3,0.3c0.2,0,0.3-0.1,0.3-0.3
		C75.2,44.6,75.1,44.4,74.9,44.4z"/>
	<path class="st6" d="M61.3,44.4c-0.2,0-0.3,0.1-0.3,0.3c0,0.2,0.1,0.3,0.3,0.3c0.2,0,0.3-0.1,0.3-0.3
		C61.6,44.6,61.5,44.4,61.3,44.4z"/>
	<path class="st6" d="M68.1,38.2c-0.2,0-0.3,0.1-0.3,0.3c0,0.2,0.1,0.3,0.3,0.3c0.2,0,0.3-0.1,0.3-0.3
		C68.4,38.3,68.3,38.2,68.1,38.2z"/>
	<path class="st6" d="M63.2,48.7c-0.2,0-0.3,0.1-0.3,0.3c0,0.2,0.1,0.3,0.3,0.3c0.2,0,0.3-0.1,0.3-0.3
		C63.5,48.9,63.4,48.7,63.2,48.7z"/>
	<path class="st6" d="M73,48.7c-0.2,0-0.3,0.1-0.3,0.3c0,0.2,0.1,0.3,0.3,0.3c0.2,0,0.3-0.1,0.3-0.3C73.3,48.9,73.2,48.7,73,48.7z"
		/>
	<ellipse class="st6" cx="63.2" cy="40.4" rx="0.3" ry="0.3"/>
	<path class="st6" d="M73,40.1c-0.2,0-0.3,0.1-0.3,0.3c0,0.2,0.1,0.3,0.3,0.3c0.2,0,0.3-0.1,0.3-0.3C73.3,40.3,73.2,40.1,73,40.1z"
		/>
</g>
</svg>
