<?xml version="1.0" encoding="utf-8"?>
<!-- Generator: Adobe Illustrator 22.1.0, SVG Export Plug-In . SVG Version: 6.00 Build 0)  -->
<svg version="1.1" id="Слой_1" xmlns="http://www.w3.org/2000/svg" xmlns:xlink="http://www.w3.org/1999/xlink" x="0px" y="0px"
	 viewBox="0 0 512 512" style="enable-background:new 0 0 512 512;" xml:space="preserve">
<style type="text/css">
	.st0{fill:#4C7B98;}
	.st1{fill:#979695;}
	.st2{fill:#C3C3C4;}
</style>
<path class="st0" d="M426.5,279.6l-24.7-3.3c-8.1-1.1-16.2-1.5-24.3-1.1L256,280H53.5c-3.4,0-6.2-2.8-6.2-6.2v-14.9
	c0-4.2,0.2-8.3,0.5-12.5l2.1-24.9c0.3-3,0.3-6,0.1-9l-2.7-45.8c0-9.2,7.5-16.7,16.7-16.7l103.9,6.9c0.4,0,16.8-2.3,30.5-4.3
	c11.8-1.7,26.9,7.3,38.7,5.7l70.7-8.3h139.2c7.8,0,14.2,6.3,14.2,14.2v84.2c0,15.6-11.3,28.6-26.2,31.2
	C432.1,280,429.3,280,426.5,279.6z"/>
<path class="st1" d="M409.3,166.6h-328c-11.7,0-21.1,6.7-21.1,14.9v79.3h42.3V191h306.8V166.6z"/>
<path class="st1" d="M413.1,166.6v74.3c0,8.8-8.7,15.9-19.4,15.9H111.9v4h291.2c10.4,0,18.8-6.7,18.8-14.9v-79.3H413.1z"/>
<g>
	<path class="st2" d="M106.2,227.7l7.5-0.5c0.4,2.2,1.2,4.1,2.5,5.5c1.3,1.4,3.3,2.6,6,3.5c2.7,0.9,5.8,1.3,9.2,1.3c3,0,5.7-0.3,8-1
		c2.3-0.7,4-1.6,5.2-2.8c1.1-1.2,1.7-2.5,1.7-3.9c0-1.4-0.5-2.6-1.6-3.7c-1.1-1.1-2.9-1.9-5.4-2.7c-1.6-0.5-5.2-1.2-10.6-2.2
		c-5.5-1-9.3-1.9-11.5-2.8c-2.9-1.1-5-2.5-6.4-4.2c-1.4-1.7-2.1-3.5-2.1-5.6c0-2.3,0.9-4.4,2.6-6.4c1.7-2,4.2-3.5,7.5-4.5
		c3.3-1,6.9-1.5,11-1.5c4.4,0,8.3,0.5,11.7,1.6c3.4,1.1,6,2.7,7.8,4.7c1.8,2.1,2.8,4.4,2.9,7.1l-7.6,0.4c-0.4-2.8-1.8-5-4.1-6.4
		c-2.4-1.5-5.8-2.2-10.4-2.2c-4.8,0-8.3,0.7-10.5,2c-2.2,1.3-3.3,2.9-3.3,4.8c0,1.6,0.8,2.9,2.3,4c1.5,1,5.5,2.1,11.9,3.2
		c6.4,1.1,10.8,2.1,13.2,2.9c3.5,1.2,6,2.7,7.7,4.6c1.7,1.9,2.5,4,2.5,6.4c0,2.4-0.9,4.6-2.7,6.8c-1.8,2.1-4.4,3.8-7.8,4.9
		c-3.4,1.2-7.3,1.8-11.5,1.8c-5.4,0-9.9-0.6-13.6-1.8c-3.7-1.2-6.5-3-8.6-5.4C107.4,233.4,106.3,230.7,106.2,227.7z"/>
	<path class="st2" d="M164.2,227.7l7.5-0.5c0.4,2.2,1.2,4.1,2.5,5.5c1.3,1.4,3.3,2.6,6,3.5c2.7,0.9,5.8,1.3,9.2,1.3c3,0,5.7-0.3,8-1
		c2.3-0.7,4-1.6,5.2-2.8c1.1-1.2,1.7-2.5,1.7-3.9c0-1.4-0.5-2.6-1.6-3.7c-1.1-1.1-2.9-1.9-5.4-2.7c-1.6-0.5-5.2-1.2-10.6-2.2
		c-5.5-1-9.3-1.9-11.5-2.8c-2.9-1.1-5-2.5-6.4-4.2c-1.4-1.7-2.1-3.5-2.1-5.6c0-2.3,0.9-4.4,2.6-6.4c1.7-2,4.2-3.5,7.5-4.5
		c3.3-1,6.9-1.5,11-1.5c4.4,0,8.3,0.5,11.7,1.6c3.4,1.1,6,2.7,7.8,4.7c1.8,2.1,2.8,4.4,2.9,7.1l-7.6,0.4c-0.4-2.8-1.8-5-4.1-6.4
		c-2.4-1.5-5.8-2.2-10.4-2.2c-4.8,0-8.3,0.7-10.5,2c-2.2,1.3-3.3,2.9-3.3,4.8c0,1.6,0.8,2.9,2.3,4c1.5,1,5.5,2.1,11.9,3.2
		c6.4,1.1,10.8,2.1,13.2,2.9c3.5,1.2,6,2.7,7.7,4.6c1.7,1.9,2.5,4,2.5,6.4c0,2.4-0.9,4.6-2.7,6.8c-1.8,2.1-4.4,3.8-7.8,4.9
		c-3.4,1.2-7.3,1.8-11.5,1.8c-5.4,0-9.9-0.6-13.6-1.8c-3.7-1.2-6.5-3-8.6-5.4C165.4,233.4,164.3,230.7,164.2,227.7z"/>
	<path class="st2" d="M240,237.2l1.1,4.9c-2.1,0.3-3.9,0.5-5.5,0.5c-2.7,0-4.7-0.3-6.2-1c-1.5-0.6-2.5-1.5-3.1-2.5
		c-0.6-1-0.9-3.2-0.9-6.5v-18.7H220v-4.3h5.4v-8.1l7.3-3.3v11.4h7.4v4.3h-7.4v19.1c0,1.6,0.1,2.6,0.4,3c0.3,0.5,0.7,0.8,1.3,1.1
		c0.6,0.3,1.4,0.4,2.5,0.4C237.6,237.4,238.7,237.3,240,237.2z"/>
	<path class="st2" d="M277.9,242.1v-4.8c-3.4,3.7-8,5.5-13.7,5.5c-2.6,0-4.9-0.4-7.2-1.1c-2.2-0.7-3.9-1.7-4.9-2.8
		c-1.1-1.1-1.8-2.5-2.3-4.1c-0.3-1.1-0.4-2.8-0.4-5.2v-20.2h7.3v18.1c0,2.9,0.1,4.8,0.4,5.8c0.5,1.5,1.4,2.6,2.9,3.4
		c1.5,0.8,3.3,1.2,5.5,1.2s4.3-0.4,6.2-1.3c1.9-0.8,3.3-2,4.1-3.5c0.8-1.5,1.2-3.6,1.2-6.4v-17.5h7.3v32.6H277.9z"/>
	<path class="st2" d="M326.4,242.1V238c-2.7,3.2-6.8,4.8-12.1,4.8c-3.5,0-6.6-0.7-9.5-2.1c-2.9-1.4-5.1-3.4-6.7-6
		c-1.6-2.6-2.4-5.5-2.4-8.9c0-3.3,0.7-6.2,2.2-8.9c1.4-2.6,3.6-4.7,6.5-6.1c2.9-1.4,6.1-2.1,9.7-2.1c2.6,0,4.9,0.4,7,1.2
		c2,0.8,3.7,1.9,5,3.2v-16.1h7.3v45H326.4z M303.2,225.9c0,4.2,1.2,7.3,3.5,9.4c2.3,2.1,5.1,3.1,8.3,3.1c3.2,0,5.9-1,8.2-3
		c2.2-2,3.4-5,3.4-9c0-4.5-1.1-7.7-3.4-9.8c-2.3-2.1-5.1-3.1-8.4-3.1c-3.3,0-6,1-8.2,3C304.3,218.4,303.2,221.6,303.2,225.9z"/>
	<path class="st2" d="M347.1,203.5v-6.4h7.3v6.4H347.1z M347.1,242.1v-32.6h7.3v32.6H347.1z"/>
	<path class="st2" d="M365.2,225.8c0-6,2.2-10.5,6.7-13.4c3.7-2.4,8.3-3.6,13.6-3.6c6,0,10.8,1.5,14.6,4.4c3.8,2.9,5.7,7,5.7,12.2
		c0,4.2-0.8,7.5-2.5,9.9c-1.7,2.4-4.1,4.3-7.3,5.6c-3.2,1.3-6.7,2-10.5,2c-6.1,0-11-1.5-14.7-4.4
		C367.1,235.6,365.2,231.3,365.2,225.8z M372.8,225.8c0,4.2,1.2,7.3,3.6,9.4c2.4,2.1,5.5,3.1,9.1,3.1c3.6,0,6.7-1,9.1-3.1
		c2.4-2.1,3.6-5.3,3.6-9.5c0-4-1.2-7.1-3.6-9.2c-2.4-2.1-5.5-3.1-9.1-3.1c-3.7,0-6.7,1-9.1,3.1C374,218.5,372.8,221.7,372.8,225.8z"
		/>
</g>
</svg>
