<?xml version="1.0" encoding="utf-8"?>
<!-- Generator: Adobe Illustrator 22.1.0, SVG Export Plug-In . SVG Version: 6.00 Build 0)  -->
<svg version="1.1" xmlns="http://www.w3.org/2000/svg" xmlns:xlink="http://www.w3.org/1999/xlink" x="0px" y="0px"
	 viewBox="0 0 5040 2160" style="enable-background:new 0 0 5040 2160;" xml:space="preserve">
<style type="text/css">
	.st0{fill:url(#SVGID_1_);}
	.st1{fill:#4D4D4D;}
	.st2{fill:#BABABA;}
	.st3{fill:#303030;}
</style>
<g id="Слой_1">
	<linearGradient id="SVGID_1_" gradientUnits="userSpaceOnUse" x1="2520" y1="2160" x2="2520" y2="-9.094947e-13">
		<stop  offset="0" style="stop-color:#FFFB6A"/>
		<stop  offset="1.375533e-02" style="stop-color:#FFFB70"/>
		<stop  offset="9.809045e-02" style="stop-color:#FFFC90"/>
		<stop  offset="0.1692" style="stop-color:#FFFDA3"/>
		<stop  offset="0.2179" style="stop-color:#FFFDAA"/>
		<stop  offset="0.6103" style="stop-color:#FFAAF1"/>
		<stop  offset="1" style="stop-color:#FFAAFA"/>
	</linearGradient>
	<rect class="st0" width="5040" height="2160"/>
</g>
<g id="Слой_2">
	<path class="st1" d="M0,2160v-563c0,0,205-188,345-244s872,224,872,224l148-120l380,88c0,0,252-112,464-296c0,0,84,36,104,0
		c0,0,204,140,496,300c0,0,420,176,460,188c31.9,9.6,320.6,72.7,435.8,97.7c30.6,6.7,62.6,3.3,91.1-9.7L3984,1623l237-144
		l823.8-115.1L5040,2160H0z"/>
	<path class="st2" d="M2209,1249l-31.4,26.5c0,0-1.6,42.5,29.4,19.5c0,0,1,34,40,14c0,0,18,53,26-5c0,0,30,28,37-12
		c0,0,41.2,8.4,30.1-24.8L2313,1249C2313,1249,2300,1285,2209,1249z"/>
	<path class="st3" d="M924.2,2160l232.8-249v26l139-140c0,0,21-37,12-46s-16-57-145-27S0,1951.5,0,1951.5V2160H924.2z"/>
</g>
<g id="Слой_3">
</g>
</svg>
